G04 #@! TF.FileFunction,Copper,L1,Top,Signal*
%FSLAX46Y46*%
G04 Gerber Fmt 4.6, Leading zero omitted, Abs format (unit mm)*
G04 Created by KiCad (PCBNEW 4.0.6) date 07/25/17 01:14:20*
%MOMM*%
%LPD*%
G01*
G04 APERTURE LIST*
%ADD10C,0.100000*%
%ADD11C,2.000000*%
%ADD12C,6.400000*%
%ADD13R,1.600000X1.600000*%
%ADD14C,1.600000*%
%ADD15R,0.750000X1.200000*%
%ADD16R,1.700000X1.700000*%
%ADD17O,1.700000X1.700000*%
%ADD18R,3.500000X3.500000*%
%ADD19R,2.200000X1.200000*%
%ADD20R,6.400000X5.800000*%
%ADD21R,3.050000X2.750000*%
%ADD22R,1.100000X0.400000*%
%ADD23R,1.800000X1.800000*%
%ADD24C,1.800000*%
%ADD25R,1.200000X0.900000*%
%ADD26C,0.500000*%
%ADD27C,0.250000*%
%ADD28C,0.254000*%
G04 APERTURE END LIST*
D10*
D11*
X143510000Y-125095000D03*
X146050000Y-125095000D03*
X138430000Y-125095000D03*
X135890000Y-125095000D03*
X133350000Y-125095000D03*
X140970000Y-125095000D03*
X128270000Y-125095000D03*
X130810000Y-125095000D03*
X125730000Y-125095000D03*
X123190000Y-125095000D03*
X138430000Y-127635000D03*
X138430000Y-132715000D03*
X138430000Y-130175000D03*
X140970000Y-130175000D03*
X140970000Y-132715000D03*
X140970000Y-127635000D03*
X135890000Y-127635000D03*
X133350000Y-132715000D03*
X133350000Y-130175000D03*
X135890000Y-130175000D03*
X135890000Y-132715000D03*
X133350000Y-127635000D03*
X128270000Y-127635000D03*
X130810000Y-130175000D03*
X130810000Y-132715000D03*
X128270000Y-130175000D03*
X130810000Y-127635000D03*
X123190000Y-127635000D03*
X125730000Y-127635000D03*
X125730000Y-130175000D03*
X123190000Y-132715000D03*
X125730000Y-132715000D03*
X128270000Y-132715000D03*
X123190000Y-130175000D03*
X123190000Y-135255000D03*
X123190000Y-137795000D03*
X123190000Y-140335000D03*
X125730000Y-135255000D03*
X128270000Y-135255000D03*
X128270000Y-137795000D03*
X130810000Y-137795000D03*
X130810000Y-135255000D03*
X128270000Y-140335000D03*
X146050000Y-127635000D03*
X143510000Y-127635000D03*
X146050000Y-130175000D03*
X143510000Y-130175000D03*
X143510000Y-132715000D03*
X146050000Y-132715000D03*
X146050000Y-137795000D03*
X146050000Y-135255000D03*
X146050000Y-140335000D03*
X135890000Y-137795000D03*
X133350000Y-135255000D03*
X133350000Y-140335000D03*
X135890000Y-140335000D03*
X135890000Y-135255000D03*
X133350000Y-137795000D03*
X143510000Y-137795000D03*
X138430000Y-137795000D03*
X140970000Y-135255000D03*
X140970000Y-137795000D03*
X143510000Y-135255000D03*
X138430000Y-135255000D03*
X143510000Y-140335000D03*
X140970000Y-140335000D03*
X138430000Y-140335000D03*
X125730000Y-137795000D03*
X125730000Y-140335000D03*
X130810000Y-140335000D03*
X151130000Y-89535000D03*
X153670000Y-89535000D03*
X161290000Y-89535000D03*
X156210000Y-89535000D03*
X158750000Y-89535000D03*
X148590000Y-89535000D03*
X156210000Y-92075000D03*
X151130000Y-92075000D03*
X153670000Y-92075000D03*
X148590000Y-92075000D03*
X158750000Y-92075000D03*
X161290000Y-92075000D03*
X168910000Y-92075000D03*
X171450000Y-92075000D03*
X166370000Y-89535000D03*
X163830000Y-89535000D03*
X166370000Y-92075000D03*
X163830000Y-92075000D03*
X179070000Y-92075000D03*
X181610000Y-92075000D03*
X176530000Y-92075000D03*
X173990000Y-92075000D03*
X168910000Y-89535000D03*
X179070000Y-89535000D03*
X181610000Y-89535000D03*
X171450000Y-89535000D03*
X173990000Y-89535000D03*
X176530000Y-89535000D03*
X97790000Y-92075000D03*
X87630000Y-89535000D03*
X90170000Y-89535000D03*
X92710000Y-89535000D03*
X95250000Y-92075000D03*
X95250000Y-89535000D03*
X100330000Y-89535000D03*
X97790000Y-89535000D03*
X100330000Y-92075000D03*
X92710000Y-92075000D03*
X87630000Y-92075000D03*
X90170000Y-92075000D03*
X110490000Y-89535000D03*
X110490000Y-92075000D03*
X107950000Y-89535000D03*
X107950000Y-92075000D03*
X118110000Y-92075000D03*
X120650000Y-92075000D03*
X120650000Y-89535000D03*
X118110000Y-89535000D03*
X102870000Y-92075000D03*
X102870000Y-89535000D03*
X105410000Y-92075000D03*
X105410000Y-89535000D03*
X113030000Y-89535000D03*
X113030000Y-92075000D03*
X115570000Y-92075000D03*
X115570000Y-89535000D03*
X168910000Y-168275000D03*
X166370000Y-168275000D03*
X168910000Y-170815000D03*
X166370000Y-170815000D03*
X168910000Y-173355000D03*
X166370000Y-173355000D03*
X173990000Y-173355000D03*
X171450000Y-170815000D03*
X171450000Y-173355000D03*
X171450000Y-168275000D03*
X173990000Y-170815000D03*
X173990000Y-168275000D03*
X146050000Y-168275000D03*
X146050000Y-173355000D03*
X148590000Y-173355000D03*
X146050000Y-170815000D03*
X143510000Y-173355000D03*
X148590000Y-168275000D03*
X148590000Y-170815000D03*
X133350000Y-173355000D03*
X135890000Y-168275000D03*
X133350000Y-170815000D03*
X135890000Y-170815000D03*
X138430000Y-173355000D03*
X133350000Y-168275000D03*
X138430000Y-170815000D03*
X135890000Y-173355000D03*
X138430000Y-168275000D03*
X140970000Y-173355000D03*
X140970000Y-168275000D03*
X143510000Y-168275000D03*
X143510000Y-170815000D03*
X140970000Y-170815000D03*
X158750000Y-170815000D03*
X161290000Y-168275000D03*
X158750000Y-173355000D03*
X158750000Y-168275000D03*
X151130000Y-173355000D03*
X156210000Y-173355000D03*
X153670000Y-170815000D03*
X151130000Y-170815000D03*
X153670000Y-173355000D03*
X156210000Y-170815000D03*
X151130000Y-168275000D03*
X156210000Y-168275000D03*
X153670000Y-168275000D03*
X163830000Y-173355000D03*
X161290000Y-173355000D03*
X163830000Y-170815000D03*
X161290000Y-170815000D03*
X163830000Y-168275000D03*
X95250000Y-168275000D03*
X97790000Y-168275000D03*
X95250000Y-170815000D03*
X97790000Y-170815000D03*
X97790000Y-173355000D03*
X95250000Y-173355000D03*
X113030000Y-173355000D03*
X113030000Y-170815000D03*
X115570000Y-170815000D03*
X115570000Y-173355000D03*
X115570000Y-168275000D03*
X113030000Y-168275000D03*
X110490000Y-168275000D03*
X107950000Y-168275000D03*
X105410000Y-168275000D03*
X110490000Y-170815000D03*
X105410000Y-173355000D03*
X105410000Y-170815000D03*
X110490000Y-173355000D03*
X107950000Y-173355000D03*
X107950000Y-170815000D03*
X102870000Y-173355000D03*
X100330000Y-170815000D03*
X102870000Y-170815000D03*
X100330000Y-173355000D03*
X100330000Y-168275000D03*
X102870000Y-168275000D03*
X118110000Y-170815000D03*
X120650000Y-170815000D03*
X118110000Y-173355000D03*
X123190000Y-173355000D03*
X120650000Y-173355000D03*
X130810000Y-170815000D03*
X130810000Y-173355000D03*
X125730000Y-170815000D03*
X128270000Y-173355000D03*
X128270000Y-170815000D03*
X125730000Y-173355000D03*
X118110000Y-168275000D03*
X120650000Y-168275000D03*
X123190000Y-168275000D03*
X123190000Y-170815000D03*
X130810000Y-168275000D03*
X125730000Y-168275000D03*
X128270000Y-168275000D03*
X97790000Y-158115000D03*
X95250000Y-158115000D03*
X95250000Y-160655000D03*
X97790000Y-160655000D03*
X90170000Y-160655000D03*
X92710000Y-160655000D03*
X87630000Y-158115000D03*
X87630000Y-160655000D03*
X90170000Y-158115000D03*
X92710000Y-158115000D03*
X92710000Y-163195000D03*
X87630000Y-163195000D03*
X90170000Y-163195000D03*
X95250000Y-163195000D03*
X95250000Y-165735000D03*
X97790000Y-163195000D03*
X97790000Y-165735000D03*
X115570000Y-160655000D03*
X115570000Y-158115000D03*
X118110000Y-158115000D03*
X118110000Y-160655000D03*
X115570000Y-165735000D03*
X118110000Y-165735000D03*
X115570000Y-163195000D03*
X118110000Y-163195000D03*
X113030000Y-165735000D03*
X113030000Y-163195000D03*
X113030000Y-160655000D03*
X110490000Y-158115000D03*
X113030000Y-158115000D03*
X110490000Y-160655000D03*
X107950000Y-163195000D03*
X110490000Y-165735000D03*
X110490000Y-163195000D03*
X105410000Y-165735000D03*
X105410000Y-163195000D03*
X102870000Y-165735000D03*
X107950000Y-165735000D03*
X100330000Y-163195000D03*
X100330000Y-165735000D03*
X102870000Y-163195000D03*
X100330000Y-160655000D03*
X100330000Y-158115000D03*
X102870000Y-158115000D03*
X102870000Y-160655000D03*
X105410000Y-158115000D03*
X107950000Y-160655000D03*
X105410000Y-160655000D03*
X107950000Y-158115000D03*
X133350000Y-165735000D03*
X133350000Y-160655000D03*
X133350000Y-163195000D03*
X130810000Y-163195000D03*
X130810000Y-160655000D03*
X128270000Y-160655000D03*
X125730000Y-163195000D03*
X125730000Y-160655000D03*
X123190000Y-160655000D03*
X120650000Y-160655000D03*
X130810000Y-158115000D03*
X128270000Y-158115000D03*
X120650000Y-158115000D03*
X125730000Y-158115000D03*
X123190000Y-158115000D03*
X120650000Y-163195000D03*
X123190000Y-163195000D03*
X120650000Y-165735000D03*
X123190000Y-165735000D03*
X130810000Y-165735000D03*
X125730000Y-165735000D03*
X128270000Y-163195000D03*
X128270000Y-165735000D03*
X173990000Y-165735000D03*
X171450000Y-163195000D03*
X171450000Y-165735000D03*
X171450000Y-160655000D03*
X168910000Y-160655000D03*
X176530000Y-158115000D03*
X173990000Y-158115000D03*
X166370000Y-165735000D03*
X168910000Y-163195000D03*
X166370000Y-160655000D03*
X166370000Y-163195000D03*
X168910000Y-165735000D03*
X173990000Y-163195000D03*
X176530000Y-163195000D03*
X173990000Y-160655000D03*
X179070000Y-163195000D03*
X179070000Y-160655000D03*
X181610000Y-160655000D03*
X176530000Y-160655000D03*
X181610000Y-163195000D03*
X181610000Y-158115000D03*
X179070000Y-158115000D03*
X168910000Y-158115000D03*
X171450000Y-158115000D03*
X166370000Y-158115000D03*
X163830000Y-158115000D03*
X151130000Y-160655000D03*
X151130000Y-158115000D03*
X146050000Y-160655000D03*
X148590000Y-160655000D03*
X148590000Y-158115000D03*
X146050000Y-158115000D03*
X146050000Y-165735000D03*
X148590000Y-165735000D03*
X151130000Y-165735000D03*
X153670000Y-163195000D03*
X146050000Y-163195000D03*
X151130000Y-163195000D03*
X148590000Y-163195000D03*
X153670000Y-165735000D03*
X163830000Y-165735000D03*
X158750000Y-163195000D03*
X158750000Y-165735000D03*
X158750000Y-160655000D03*
X161290000Y-165735000D03*
X163830000Y-163195000D03*
X161290000Y-158115000D03*
X163830000Y-160655000D03*
X161290000Y-160655000D03*
X161290000Y-163195000D03*
X156210000Y-163195000D03*
X156210000Y-165735000D03*
X158750000Y-158115000D03*
X156210000Y-160655000D03*
X153670000Y-158115000D03*
X156210000Y-158115000D03*
X153670000Y-160655000D03*
X135890000Y-160655000D03*
X138430000Y-160655000D03*
X138430000Y-158115000D03*
X133350000Y-158115000D03*
X135890000Y-158115000D03*
X140970000Y-165735000D03*
X135890000Y-163195000D03*
X143510000Y-165735000D03*
X143510000Y-163195000D03*
X138430000Y-165735000D03*
X140970000Y-163195000D03*
X135890000Y-165735000D03*
X138430000Y-163195000D03*
X140970000Y-160655000D03*
X140970000Y-158115000D03*
X143510000Y-160655000D03*
X143510000Y-158115000D03*
X120650000Y-94615000D03*
X115570000Y-97155000D03*
X118110000Y-97155000D03*
X118110000Y-94615000D03*
X115570000Y-94615000D03*
X87630000Y-107315000D03*
X95250000Y-107315000D03*
X90170000Y-107315000D03*
X92710000Y-104775000D03*
X97790000Y-107315000D03*
X92710000Y-107315000D03*
X95250000Y-104775000D03*
X90170000Y-104775000D03*
X97790000Y-104775000D03*
X90170000Y-102235000D03*
X87630000Y-102235000D03*
X90170000Y-99695000D03*
X87630000Y-99695000D03*
X87630000Y-104775000D03*
X97790000Y-102235000D03*
X92710000Y-102235000D03*
X97790000Y-99695000D03*
X95250000Y-99695000D03*
X95250000Y-97155000D03*
X92710000Y-99695000D03*
X95250000Y-102235000D03*
X92710000Y-97155000D03*
X92710000Y-94615000D03*
X90170000Y-94615000D03*
X95250000Y-94615000D03*
X97790000Y-94615000D03*
X110490000Y-94615000D03*
X113030000Y-94615000D03*
X113030000Y-97155000D03*
X113030000Y-99695000D03*
X107950000Y-99695000D03*
X110490000Y-99695000D03*
X110490000Y-97155000D03*
X100330000Y-107315000D03*
X102870000Y-107315000D03*
X107950000Y-104775000D03*
X110490000Y-104775000D03*
X110490000Y-107315000D03*
X107950000Y-107315000D03*
X105410000Y-107315000D03*
X105410000Y-104775000D03*
X102870000Y-94615000D03*
X100330000Y-99695000D03*
X100330000Y-94615000D03*
X100330000Y-97155000D03*
X107950000Y-97155000D03*
X105410000Y-94615000D03*
X107950000Y-94615000D03*
X105410000Y-97155000D03*
X107950000Y-102235000D03*
X113030000Y-107315000D03*
X110490000Y-102235000D03*
X113030000Y-102235000D03*
X113030000Y-104775000D03*
X100330000Y-104775000D03*
X102870000Y-104775000D03*
X102870000Y-102235000D03*
X105410000Y-102235000D03*
X105410000Y-99695000D03*
X102870000Y-99695000D03*
X102870000Y-97155000D03*
X100330000Y-102235000D03*
X87630000Y-97155000D03*
X90170000Y-97155000D03*
X87630000Y-94615000D03*
X97790000Y-97155000D03*
X120650000Y-104775000D03*
X120650000Y-107315000D03*
X118110000Y-107315000D03*
X115570000Y-104775000D03*
X115570000Y-99695000D03*
X118110000Y-104775000D03*
X115570000Y-107315000D03*
X118110000Y-102235000D03*
X115570000Y-102235000D03*
X118110000Y-99695000D03*
X120650000Y-97155000D03*
X120650000Y-99695000D03*
X120650000Y-102235000D03*
X179070000Y-107315000D03*
X176530000Y-107315000D03*
X181610000Y-107315000D03*
X173990000Y-107315000D03*
X171450000Y-104775000D03*
X173990000Y-104775000D03*
X171450000Y-107315000D03*
X171450000Y-102235000D03*
X166370000Y-102235000D03*
X168910000Y-102235000D03*
X166370000Y-107315000D03*
X168910000Y-104775000D03*
X166370000Y-104775000D03*
X168910000Y-107315000D03*
X179070000Y-94615000D03*
X181610000Y-94615000D03*
X179070000Y-97155000D03*
X181610000Y-97155000D03*
X181610000Y-99695000D03*
X179070000Y-99695000D03*
X181610000Y-102235000D03*
X176530000Y-104775000D03*
X179070000Y-102235000D03*
X179070000Y-104775000D03*
X181610000Y-104775000D03*
X173990000Y-102235000D03*
X176530000Y-102235000D03*
X173990000Y-99695000D03*
X176530000Y-99695000D03*
X151130000Y-94615000D03*
X148590000Y-94615000D03*
X151130000Y-97155000D03*
X166370000Y-99695000D03*
X168910000Y-99695000D03*
X163830000Y-99695000D03*
X166370000Y-97155000D03*
X163830000Y-97155000D03*
X163830000Y-94615000D03*
X166370000Y-94615000D03*
X168910000Y-97155000D03*
X168910000Y-94615000D03*
X171450000Y-99695000D03*
X173990000Y-97155000D03*
X176530000Y-94615000D03*
X171450000Y-97155000D03*
X176530000Y-97155000D03*
X173990000Y-94615000D03*
X171450000Y-94615000D03*
X148590000Y-102235000D03*
X151130000Y-102235000D03*
X148590000Y-99695000D03*
X151130000Y-99695000D03*
X163830000Y-104775000D03*
X161290000Y-104775000D03*
X161290000Y-107315000D03*
X163830000Y-102235000D03*
X161290000Y-102235000D03*
X163830000Y-107315000D03*
X148590000Y-104775000D03*
X151130000Y-107315000D03*
X151130000Y-104775000D03*
X148590000Y-107315000D03*
X158750000Y-102235000D03*
X158750000Y-97155000D03*
X158750000Y-99695000D03*
X161290000Y-99695000D03*
X161290000Y-97155000D03*
X148590000Y-97155000D03*
X153670000Y-99695000D03*
X156210000Y-99695000D03*
X153670000Y-97155000D03*
X153670000Y-94615000D03*
X156210000Y-97155000D03*
X156210000Y-94615000D03*
X153670000Y-107315000D03*
X153670000Y-104775000D03*
X153670000Y-102235000D03*
X156210000Y-107315000D03*
X158750000Y-107315000D03*
X158750000Y-104775000D03*
X156210000Y-104775000D03*
X156210000Y-102235000D03*
X158750000Y-94615000D03*
X161290000Y-94615000D03*
X140970000Y-155575000D03*
X140970000Y-153035000D03*
X140970000Y-150495000D03*
X143510000Y-150495000D03*
X138430000Y-155575000D03*
X138430000Y-153035000D03*
X138430000Y-150495000D03*
X135890000Y-150495000D03*
X135890000Y-155575000D03*
X133350000Y-155575000D03*
X133350000Y-150495000D03*
X133350000Y-153035000D03*
X135890000Y-153035000D03*
X143510000Y-155575000D03*
X146050000Y-155575000D03*
X146050000Y-150495000D03*
X146050000Y-153035000D03*
X143510000Y-153035000D03*
X148590000Y-150495000D03*
X181610000Y-150495000D03*
X179070000Y-150495000D03*
X176530000Y-150495000D03*
X171450000Y-150495000D03*
X163830000Y-153035000D03*
X163830000Y-150495000D03*
X166370000Y-150495000D03*
X168910000Y-150495000D03*
X166370000Y-155575000D03*
X163830000Y-155575000D03*
X168910000Y-153035000D03*
X166370000Y-153035000D03*
X168910000Y-155575000D03*
X173990000Y-155575000D03*
X171450000Y-153035000D03*
X173990000Y-153035000D03*
X171450000Y-155575000D03*
X173990000Y-150495000D03*
X179070000Y-155575000D03*
X181610000Y-155575000D03*
X176530000Y-155575000D03*
X176530000Y-153035000D03*
X179070000Y-153035000D03*
X181610000Y-153035000D03*
X153670000Y-155575000D03*
X148590000Y-155575000D03*
X148590000Y-153035000D03*
X151130000Y-155575000D03*
X151130000Y-153035000D03*
X153670000Y-153035000D03*
X153670000Y-150495000D03*
X151130000Y-150495000D03*
X156210000Y-155575000D03*
X158750000Y-155575000D03*
X161290000Y-153035000D03*
X161290000Y-155575000D03*
X158750000Y-153035000D03*
X156210000Y-153035000D03*
X156210000Y-150495000D03*
X158750000Y-150495000D03*
X161290000Y-150495000D03*
X100330000Y-153035000D03*
X100330000Y-155575000D03*
X102870000Y-150495000D03*
X100330000Y-150495000D03*
X107950000Y-153035000D03*
X110490000Y-150495000D03*
X110490000Y-153035000D03*
X113030000Y-155575000D03*
X110490000Y-155575000D03*
X107950000Y-150495000D03*
X107950000Y-155575000D03*
X105410000Y-155575000D03*
X105410000Y-153035000D03*
X105410000Y-150495000D03*
X102870000Y-155575000D03*
X102870000Y-153035000D03*
X130810000Y-155575000D03*
X130810000Y-153035000D03*
X128270000Y-153035000D03*
X128270000Y-155575000D03*
X130810000Y-150495000D03*
X128270000Y-150495000D03*
X125730000Y-155575000D03*
X125730000Y-153035000D03*
X123190000Y-155575000D03*
X123190000Y-153035000D03*
X125730000Y-150495000D03*
X118110000Y-155575000D03*
X120650000Y-153035000D03*
X120650000Y-155575000D03*
X118110000Y-153035000D03*
X115570000Y-155575000D03*
X118110000Y-150495000D03*
X115570000Y-153035000D03*
X115570000Y-150495000D03*
X123190000Y-150495000D03*
X120650000Y-150495000D03*
X113030000Y-153035000D03*
X113030000Y-150495000D03*
X92710000Y-153035000D03*
X97790000Y-150495000D03*
X97790000Y-153035000D03*
X97790000Y-155575000D03*
X92710000Y-155575000D03*
X95250000Y-153035000D03*
X95250000Y-150495000D03*
X95250000Y-155575000D03*
X90170000Y-155575000D03*
X92710000Y-150495000D03*
X87630000Y-150495000D03*
X87630000Y-155575000D03*
X90170000Y-150495000D03*
X87630000Y-153035000D03*
X90170000Y-153035000D03*
X140970000Y-147955000D03*
X138430000Y-147955000D03*
X135890000Y-147955000D03*
X133350000Y-147955000D03*
X143510000Y-147955000D03*
X146050000Y-147955000D03*
X130810000Y-147955000D03*
X128270000Y-147955000D03*
X125730000Y-147955000D03*
X123190000Y-147955000D03*
X140970000Y-145415000D03*
X138430000Y-145415000D03*
X135890000Y-145415000D03*
X133350000Y-145415000D03*
X143510000Y-145415000D03*
X146050000Y-145415000D03*
X130810000Y-145415000D03*
X128270000Y-145415000D03*
X125730000Y-145415000D03*
X123190000Y-145415000D03*
X140970000Y-142875000D03*
X138430000Y-142875000D03*
X143510000Y-142875000D03*
X146050000Y-142875000D03*
X130810000Y-142875000D03*
X133350000Y-142875000D03*
X135890000Y-142875000D03*
X125730000Y-142875000D03*
X128270000Y-142875000D03*
X123190000Y-142875000D03*
X120650000Y-135255000D03*
X118110000Y-132715000D03*
X120650000Y-132715000D03*
X118110000Y-135255000D03*
X118110000Y-137795000D03*
X115570000Y-137795000D03*
X120650000Y-140335000D03*
X120650000Y-137795000D03*
X118110000Y-147955000D03*
X115570000Y-147955000D03*
X120650000Y-147955000D03*
X120650000Y-142875000D03*
X120650000Y-145415000D03*
X118110000Y-145415000D03*
X118110000Y-142875000D03*
X118110000Y-140335000D03*
X115570000Y-127635000D03*
X118110000Y-127635000D03*
X120650000Y-127635000D03*
X120650000Y-125095000D03*
X118110000Y-125095000D03*
X113030000Y-125095000D03*
X115570000Y-125095000D03*
X120650000Y-130175000D03*
X115570000Y-132715000D03*
X115570000Y-135255000D03*
X118110000Y-130175000D03*
X115570000Y-130175000D03*
X115570000Y-145415000D03*
X113030000Y-145415000D03*
X113030000Y-140335000D03*
X113030000Y-142875000D03*
X115570000Y-142875000D03*
X115570000Y-140335000D03*
X90170000Y-125095000D03*
X87630000Y-125095000D03*
X87630000Y-122555000D03*
X90170000Y-122555000D03*
X92710000Y-122555000D03*
X92710000Y-120015000D03*
X97790000Y-125095000D03*
X97790000Y-122555000D03*
X97790000Y-120015000D03*
X95250000Y-122555000D03*
X95250000Y-120015000D03*
X87630000Y-117475000D03*
X90170000Y-120015000D03*
X87630000Y-114935000D03*
X87630000Y-120015000D03*
X95250000Y-114935000D03*
X97790000Y-114935000D03*
X97790000Y-117475000D03*
X95250000Y-117475000D03*
X90170000Y-114935000D03*
X90170000Y-117475000D03*
X92710000Y-117475000D03*
X92710000Y-114935000D03*
X87630000Y-130175000D03*
X90170000Y-130175000D03*
X87630000Y-127635000D03*
X90170000Y-127635000D03*
X97790000Y-130175000D03*
X100330000Y-130175000D03*
X100330000Y-132715000D03*
X97790000Y-132715000D03*
X95250000Y-130175000D03*
X95250000Y-132715000D03*
X100330000Y-127635000D03*
X97790000Y-127635000D03*
X87630000Y-132715000D03*
X90170000Y-132715000D03*
X92710000Y-130175000D03*
X92710000Y-132715000D03*
X92710000Y-125095000D03*
X95250000Y-127635000D03*
X92710000Y-127635000D03*
X95250000Y-125095000D03*
X90170000Y-147955000D03*
X87630000Y-145415000D03*
X87630000Y-147955000D03*
X92710000Y-145415000D03*
X90170000Y-145415000D03*
X92710000Y-147955000D03*
X100330000Y-137795000D03*
X97790000Y-135255000D03*
X100330000Y-135255000D03*
X100330000Y-140335000D03*
X87630000Y-137795000D03*
X87630000Y-135255000D03*
X92710000Y-135255000D03*
X90170000Y-137795000D03*
X90170000Y-135255000D03*
X92710000Y-137795000D03*
X100330000Y-145415000D03*
X100330000Y-142875000D03*
X97790000Y-145415000D03*
X97790000Y-142875000D03*
X95250000Y-142875000D03*
X95250000Y-147955000D03*
X100330000Y-147955000D03*
X97790000Y-147955000D03*
X95250000Y-145415000D03*
X97790000Y-140335000D03*
X95250000Y-137795000D03*
X97790000Y-137795000D03*
X95250000Y-135255000D03*
X95250000Y-140335000D03*
X87630000Y-142875000D03*
X92710000Y-140335000D03*
X87630000Y-140335000D03*
X90170000Y-140335000D03*
X90170000Y-142875000D03*
X92710000Y-142875000D03*
X100330000Y-122555000D03*
X100330000Y-125095000D03*
X102870000Y-125095000D03*
X100330000Y-120015000D03*
X107950000Y-120015000D03*
X107950000Y-122555000D03*
X107950000Y-125095000D03*
X110490000Y-125095000D03*
X105410000Y-125095000D03*
X102870000Y-122555000D03*
X105410000Y-120015000D03*
X105410000Y-122555000D03*
X102870000Y-120015000D03*
X107950000Y-114935000D03*
X107950000Y-117475000D03*
X105410000Y-114935000D03*
X105410000Y-117475000D03*
X100330000Y-114935000D03*
X102870000Y-114935000D03*
X102870000Y-117475000D03*
X100330000Y-117475000D03*
X110490000Y-132715000D03*
X113030000Y-132715000D03*
X107950000Y-132715000D03*
X107950000Y-130175000D03*
X105410000Y-145415000D03*
X105410000Y-147955000D03*
X102870000Y-147955000D03*
X102870000Y-145415000D03*
X107950000Y-145415000D03*
X105410000Y-137795000D03*
X102870000Y-140335000D03*
X105410000Y-140335000D03*
X105410000Y-142875000D03*
X102870000Y-142875000D03*
X102870000Y-137795000D03*
X110490000Y-130175000D03*
X113030000Y-130175000D03*
X113030000Y-127635000D03*
X107950000Y-127635000D03*
X110490000Y-127635000D03*
X102870000Y-132715000D03*
X102870000Y-135255000D03*
X105410000Y-130175000D03*
X105410000Y-135255000D03*
X105410000Y-132715000D03*
X102870000Y-130175000D03*
X102870000Y-127635000D03*
X105410000Y-127635000D03*
X107950000Y-142875000D03*
X113030000Y-137795000D03*
X110490000Y-137795000D03*
X110490000Y-142875000D03*
X110490000Y-145415000D03*
X107950000Y-147955000D03*
X110490000Y-147955000D03*
X113030000Y-147955000D03*
X113030000Y-135255000D03*
X110490000Y-135255000D03*
X107950000Y-135255000D03*
X107950000Y-137795000D03*
X107950000Y-140335000D03*
X110490000Y-140335000D03*
X118110000Y-112395000D03*
X118110000Y-109855000D03*
X115570000Y-112395000D03*
X115570000Y-109855000D03*
X113030000Y-112395000D03*
X113030000Y-109855000D03*
X120650000Y-109855000D03*
X120650000Y-112395000D03*
X90170000Y-109855000D03*
X90170000Y-112395000D03*
X87630000Y-109855000D03*
X87630000Y-112395000D03*
X120650000Y-122555000D03*
X120650000Y-120015000D03*
X118110000Y-120015000D03*
X118110000Y-122555000D03*
X120650000Y-117475000D03*
X118110000Y-114935000D03*
X118110000Y-117475000D03*
X120650000Y-114935000D03*
X115570000Y-122555000D03*
X115570000Y-120015000D03*
X113030000Y-120015000D03*
X110490000Y-120015000D03*
X113030000Y-122555000D03*
X110490000Y-122555000D03*
X113030000Y-114935000D03*
X110490000Y-114935000D03*
X115570000Y-114935000D03*
X110490000Y-117475000D03*
X115570000Y-117475000D03*
X113030000Y-117475000D03*
X92710000Y-109855000D03*
X95250000Y-112395000D03*
X95250000Y-109855000D03*
X92710000Y-112395000D03*
X105410000Y-112395000D03*
X102870000Y-109855000D03*
X102870000Y-112395000D03*
X105410000Y-109855000D03*
X107950000Y-112395000D03*
X110490000Y-109855000D03*
X107950000Y-109855000D03*
X110490000Y-112395000D03*
X97790000Y-112395000D03*
X100330000Y-112395000D03*
X100330000Y-109855000D03*
X97790000Y-109855000D03*
X179070000Y-147955000D03*
X181610000Y-147955000D03*
X176530000Y-147955000D03*
X176530000Y-145415000D03*
X179070000Y-145415000D03*
X181610000Y-142875000D03*
X181610000Y-145415000D03*
X166370000Y-145415000D03*
X163830000Y-145415000D03*
X166370000Y-147955000D03*
X163830000Y-147955000D03*
X171450000Y-145415000D03*
X173990000Y-145415000D03*
X171450000Y-147955000D03*
X173990000Y-147955000D03*
X168910000Y-147955000D03*
X176530000Y-135255000D03*
X176530000Y-137795000D03*
X179070000Y-137795000D03*
X181610000Y-135255000D03*
X179070000Y-135255000D03*
X176530000Y-142875000D03*
X179070000Y-142875000D03*
X176530000Y-140335000D03*
X179070000Y-140335000D03*
X181610000Y-140335000D03*
X181610000Y-137795000D03*
X168910000Y-140335000D03*
X173990000Y-140335000D03*
X171450000Y-140335000D03*
X171450000Y-142875000D03*
X168910000Y-142875000D03*
X173990000Y-142875000D03*
X168910000Y-145415000D03*
X163830000Y-140335000D03*
X166370000Y-140335000D03*
X163830000Y-142875000D03*
X161290000Y-140335000D03*
X161290000Y-142875000D03*
X166370000Y-142875000D03*
X173990000Y-137795000D03*
X173990000Y-135255000D03*
X171450000Y-137795000D03*
X171450000Y-135255000D03*
X156210000Y-137795000D03*
X158750000Y-135255000D03*
X156210000Y-135255000D03*
X158750000Y-137795000D03*
X153670000Y-135255000D03*
X151130000Y-137795000D03*
X151130000Y-135255000D03*
X153670000Y-137795000D03*
X166370000Y-137795000D03*
X166370000Y-135255000D03*
X168910000Y-135255000D03*
X168910000Y-137795000D03*
X161290000Y-137795000D03*
X163830000Y-135255000D03*
X161290000Y-135255000D03*
X163830000Y-137795000D03*
X153670000Y-142875000D03*
X156210000Y-140335000D03*
X153670000Y-140335000D03*
X156210000Y-142875000D03*
X158750000Y-142875000D03*
X158750000Y-145415000D03*
X156210000Y-145415000D03*
X158750000Y-140335000D03*
X153670000Y-145415000D03*
X158750000Y-147955000D03*
X161290000Y-147955000D03*
X156210000Y-147955000D03*
X161290000Y-145415000D03*
X153670000Y-147955000D03*
X151130000Y-142875000D03*
X148590000Y-140335000D03*
X151130000Y-140335000D03*
X151130000Y-145415000D03*
X148590000Y-135255000D03*
X148590000Y-145415000D03*
X148590000Y-137795000D03*
X148590000Y-142875000D03*
X148590000Y-147955000D03*
X151130000Y-147955000D03*
X153670000Y-132715000D03*
X153670000Y-130175000D03*
X156210000Y-132715000D03*
X156210000Y-130175000D03*
X176530000Y-130175000D03*
X179070000Y-132715000D03*
X179070000Y-130175000D03*
X176530000Y-132715000D03*
X181610000Y-132715000D03*
X173990000Y-132715000D03*
X173990000Y-130175000D03*
X181610000Y-130175000D03*
X166370000Y-130175000D03*
X166370000Y-132715000D03*
X163830000Y-132715000D03*
X163830000Y-130175000D03*
X171450000Y-132715000D03*
X171450000Y-130175000D03*
X168910000Y-132715000D03*
X168910000Y-130175000D03*
X151130000Y-132715000D03*
X148590000Y-130175000D03*
X148590000Y-132715000D03*
X151130000Y-130175000D03*
X158750000Y-130175000D03*
X161290000Y-132715000D03*
X158750000Y-132715000D03*
X161290000Y-130175000D03*
X163830000Y-120015000D03*
X166370000Y-122555000D03*
X166370000Y-120015000D03*
X163830000Y-122555000D03*
X176530000Y-122555000D03*
X179070000Y-122555000D03*
X176530000Y-120015000D03*
X179070000Y-120015000D03*
X168910000Y-120015000D03*
X171450000Y-120015000D03*
X171450000Y-122555000D03*
X168910000Y-122555000D03*
X173990000Y-122555000D03*
X181610000Y-120015000D03*
X181610000Y-122555000D03*
X173990000Y-120015000D03*
X161290000Y-120015000D03*
X151130000Y-122555000D03*
X153670000Y-122555000D03*
X148590000Y-122555000D03*
X153670000Y-120015000D03*
X148590000Y-120015000D03*
X151130000Y-120015000D03*
X158750000Y-122555000D03*
X158750000Y-120015000D03*
X156210000Y-122555000D03*
X156210000Y-120015000D03*
X161290000Y-122555000D03*
X158750000Y-127635000D03*
X158750000Y-125095000D03*
X153670000Y-125095000D03*
X156210000Y-125095000D03*
X156210000Y-127635000D03*
X168910000Y-127635000D03*
X163830000Y-127635000D03*
X163830000Y-125095000D03*
X166370000Y-125095000D03*
X161290000Y-127635000D03*
X166370000Y-127635000D03*
X161290000Y-125095000D03*
X168910000Y-125095000D03*
X171450000Y-125095000D03*
X173990000Y-125095000D03*
X173990000Y-127635000D03*
X171450000Y-127635000D03*
X148590000Y-127635000D03*
X151130000Y-125095000D03*
X151130000Y-127635000D03*
X153670000Y-127635000D03*
X148590000Y-125095000D03*
X181610000Y-125095000D03*
X179070000Y-125095000D03*
X176530000Y-127635000D03*
X179070000Y-127635000D03*
X181610000Y-127635000D03*
X176530000Y-125095000D03*
X181610000Y-114935000D03*
X179070000Y-114935000D03*
X176530000Y-117475000D03*
X179070000Y-117475000D03*
X181610000Y-117475000D03*
X176530000Y-114935000D03*
X171450000Y-117475000D03*
X168910000Y-117475000D03*
X168910000Y-114935000D03*
X171450000Y-114935000D03*
X173990000Y-114935000D03*
X173990000Y-117475000D03*
X161290000Y-117475000D03*
X163830000Y-117475000D03*
X158750000Y-117475000D03*
X166370000Y-117475000D03*
X158750000Y-114935000D03*
X161290000Y-114935000D03*
X163830000Y-114935000D03*
X166370000Y-114935000D03*
X148590000Y-117475000D03*
X151130000Y-114935000D03*
X153670000Y-114935000D03*
X156210000Y-114935000D03*
X156210000Y-117475000D03*
X151130000Y-117475000D03*
X153670000Y-117475000D03*
X148590000Y-114935000D03*
X161290000Y-112395000D03*
X158750000Y-112395000D03*
X148590000Y-112395000D03*
X151130000Y-112395000D03*
X153670000Y-112395000D03*
X156210000Y-112395000D03*
X181610000Y-109855000D03*
X179070000Y-109855000D03*
X171450000Y-112395000D03*
X163830000Y-112395000D03*
X166370000Y-112395000D03*
X168910000Y-112395000D03*
X181610000Y-112395000D03*
X173990000Y-112395000D03*
X176530000Y-112395000D03*
X179070000Y-112395000D03*
X176530000Y-109855000D03*
X168910000Y-109855000D03*
X171450000Y-109855000D03*
X173990000Y-109855000D03*
X166370000Y-109855000D03*
X158750000Y-109855000D03*
X161290000Y-109855000D03*
X163830000Y-109855000D03*
X156210000Y-109855000D03*
X148590000Y-109855000D03*
X151130000Y-109855000D03*
D12*
X89530000Y-169850000D03*
X179530000Y-169850000D03*
X179530000Y-79850000D03*
D13*
X156720000Y-79740000D03*
D14*
X154220000Y-79740000D03*
D15*
X142750000Y-83230000D03*
X142750000Y-81330000D03*
X142750000Y-77520000D03*
X142750000Y-79420000D03*
D13*
X146560000Y-79740000D03*
D14*
X149060000Y-79740000D03*
D15*
X142240000Y-103270000D03*
X142240000Y-105170000D03*
X129540000Y-105170000D03*
X129540000Y-103270000D03*
D11*
X124630000Y-89700000D03*
X124630000Y-92240000D03*
X124630000Y-94780000D03*
X124630000Y-97320000D03*
X124630000Y-99860000D03*
X124630000Y-102400000D03*
X124630000Y-107480000D03*
X124630000Y-110020000D03*
X124630000Y-112560000D03*
X124630000Y-115100000D03*
X124630000Y-117640000D03*
X124630000Y-120180000D03*
X144950000Y-89700000D03*
X144950000Y-92240000D03*
X144950000Y-94780000D03*
X144950000Y-97320000D03*
X144950000Y-99860000D03*
X144950000Y-102400000D03*
X144780000Y-112475000D03*
X144780000Y-115015000D03*
X144780000Y-117555000D03*
X144780000Y-120095000D03*
D16*
X111000000Y-81010000D03*
D17*
X113540000Y-81010000D03*
X116080000Y-81010000D03*
X118620000Y-81010000D03*
X121160000Y-81010000D03*
X123700000Y-81010000D03*
D18*
X166880000Y-84820000D03*
X166880000Y-78820000D03*
X162180000Y-81820000D03*
D19*
X139330000Y-83290000D03*
X139330000Y-81010000D03*
X139330000Y-78730000D03*
D20*
X133030000Y-81010000D03*
D21*
X131355000Y-79485000D03*
X134705000Y-82535000D03*
X131355000Y-82535000D03*
X134705000Y-79485000D03*
D22*
X133040000Y-99995000D03*
X133040000Y-100645000D03*
X133040000Y-101295000D03*
X133040000Y-101945000D03*
X133040000Y-102595000D03*
X133040000Y-103245000D03*
X133040000Y-103895000D03*
X133040000Y-104545000D03*
X133040000Y-105195000D03*
X133040000Y-105845000D03*
X133040000Y-106495000D03*
X133040000Y-107145000D03*
X133040000Y-107795000D03*
X133040000Y-108445000D03*
X138740000Y-108445000D03*
X138740000Y-107795000D03*
X138740000Y-107145000D03*
X138740000Y-106495000D03*
X138740000Y-105845000D03*
X138740000Y-105195000D03*
X138740000Y-104545000D03*
X138740000Y-103895000D03*
X138740000Y-103245000D03*
X138740000Y-102595000D03*
X138740000Y-101945000D03*
X138740000Y-101295000D03*
X138740000Y-100645000D03*
X138740000Y-99995000D03*
D11*
X144780000Y-107395000D03*
X144780000Y-109935000D03*
X153670000Y-109855000D03*
D12*
X89530000Y-79850000D03*
D23*
X106680000Y-80645000D03*
D24*
X104140000Y-80645000D03*
D25*
X106680000Y-85090000D03*
X104480000Y-85090000D03*
D26*
X136074990Y-85540010D03*
X143420913Y-103594087D03*
X128270000Y-105410000D03*
X143510000Y-104775000D03*
X127635000Y-103505000D03*
X137160000Y-107315000D03*
X125095000Y-79375000D03*
D27*
X142750000Y-83230000D02*
X139390000Y-83230000D01*
X139390000Y-83230000D02*
X139330000Y-83290000D01*
X142750000Y-83230000D02*
X154280000Y-83230000D01*
X154280000Y-83230000D02*
X156720000Y-80790000D01*
X156720000Y-80790000D02*
X156720000Y-79740000D01*
X166880000Y-84820000D02*
X160750000Y-84820000D01*
X160750000Y-84820000D02*
X156720000Y-80790000D01*
X136074990Y-85540010D02*
X134354980Y-83820000D01*
X134354980Y-83820000D02*
X128906411Y-83820000D01*
X128906411Y-83820000D02*
X128905000Y-83820000D01*
X128083600Y-82099990D02*
X127951795Y-82231795D01*
X129273590Y-80910000D02*
X128083600Y-82099990D01*
X131355000Y-82535000D02*
X131205000Y-82535000D01*
X131205000Y-82535000D02*
X129580000Y-80910000D01*
X129580000Y-80910000D02*
X129273590Y-80910000D01*
X131445000Y-77770000D02*
X131445000Y-76835000D01*
X131355000Y-79485000D02*
X131355000Y-77860000D01*
X131355000Y-77860000D02*
X131445000Y-77770000D01*
X137160000Y-83215000D02*
X137160000Y-83820000D01*
X134705000Y-82535000D02*
X136480000Y-82535000D01*
X136480000Y-82535000D02*
X137160000Y-83215000D01*
X139330000Y-81010000D02*
X139330000Y-81860000D01*
X139330000Y-81860000D02*
X139275000Y-81915000D01*
X136074990Y-85540010D02*
X136555001Y-85059999D01*
X136555001Y-85059999D02*
X136555001Y-83789999D01*
X136555001Y-83789999D02*
X138409999Y-81935001D01*
X138409999Y-81935001D02*
X141519999Y-81935001D01*
X141519999Y-81935001D02*
X142125000Y-81330000D01*
X142125000Y-81330000D02*
X142750000Y-81330000D01*
X143420913Y-103594087D02*
X142564087Y-103594087D01*
X142564087Y-103594087D02*
X142240000Y-103270000D01*
X128675000Y-105410000D02*
X128270000Y-105410000D01*
X129540000Y-105170000D02*
X128915000Y-105170000D01*
X128915000Y-105170000D02*
X128675000Y-105410000D01*
X142750000Y-81330000D02*
X142750000Y-79420000D01*
X166880000Y-78820000D02*
X166880000Y-80820000D01*
X166880000Y-80820000D02*
X165880000Y-81820000D01*
X165880000Y-81820000D02*
X164180000Y-81820000D01*
X164180000Y-81820000D02*
X162180000Y-81820000D01*
X140650000Y-103270000D02*
X142240000Y-103270000D01*
X131130000Y-105170000D02*
X129540000Y-105170000D01*
X140025000Y-103895000D02*
X140650000Y-103270000D01*
X131755000Y-104545000D02*
X131130000Y-105170000D01*
X138740000Y-103895000D02*
X140025000Y-103895000D01*
X133040000Y-104545000D02*
X131755000Y-104545000D01*
X116080000Y-81010000D02*
X116080000Y-78230000D01*
X116080000Y-78230000D02*
X118745000Y-75565000D01*
X118745000Y-75565000D02*
X146050000Y-75565000D01*
X146050000Y-75565000D02*
X146560000Y-76075000D01*
X146560000Y-76075000D02*
X146560000Y-79740000D01*
X106680000Y-85090000D02*
X115445000Y-85090000D01*
X116080000Y-84455000D02*
X116080000Y-82212081D01*
X115445000Y-85090000D02*
X116080000Y-84455000D01*
X116080000Y-82212081D02*
X116080000Y-81010000D01*
X131120000Y-103895000D02*
X133040000Y-103895000D01*
X138740000Y-104545000D02*
X140025000Y-104545000D01*
X140025000Y-104545000D02*
X140650000Y-105170000D01*
X130495000Y-103270000D02*
X131120000Y-103895000D01*
X142865000Y-105170000D02*
X143115000Y-105170000D01*
X143115000Y-105170000D02*
X143510000Y-104775000D01*
X128905000Y-102870000D02*
X129540000Y-102870000D01*
X128270000Y-102870000D02*
X128905000Y-102870000D01*
X127635000Y-103505000D02*
X128270000Y-102870000D01*
X142750000Y-77520000D02*
X145390000Y-77520000D01*
X145390000Y-77520000D02*
X146560000Y-78690000D01*
X146560000Y-78690000D02*
X146560000Y-79740000D01*
X142240000Y-105170000D02*
X142865000Y-105170000D01*
X142750000Y-77520000D02*
X139690000Y-77520000D01*
X139690000Y-77520000D02*
X139330000Y-77880000D01*
X139330000Y-77880000D02*
X139330000Y-78730000D01*
X140650000Y-105170000D02*
X142240000Y-105170000D01*
X129540000Y-103270000D02*
X130495000Y-103270000D01*
X126365000Y-91435000D02*
X124630000Y-89700000D01*
X127000000Y-92070000D02*
X126365000Y-91435000D01*
X132690000Y-99995000D02*
X127000000Y-94305000D01*
X127000000Y-94305000D02*
X127000000Y-92070000D01*
X133040000Y-99995000D02*
X132690000Y-99995000D01*
X125629999Y-93239999D02*
X124630000Y-92240000D01*
X133040000Y-100645000D02*
X132456002Y-100645000D01*
X132456002Y-100645000D02*
X125629999Y-93818997D01*
X125629999Y-93818997D02*
X125629999Y-93239999D01*
X125629999Y-95779999D02*
X124630000Y-94780000D01*
X133040000Y-101295000D02*
X132240000Y-101295000D01*
X132240000Y-101295000D02*
X126724999Y-95779999D01*
X126724999Y-95779999D02*
X125629999Y-95779999D01*
X126044213Y-97320000D02*
X124630000Y-97320000D01*
X133040000Y-101945000D02*
X132240000Y-101945000D01*
X132240000Y-101945000D02*
X127615000Y-97320000D01*
X127615000Y-97320000D02*
X126044213Y-97320000D01*
X126044213Y-99860000D02*
X124630000Y-99860000D01*
X133040000Y-102595000D02*
X132240000Y-102595000D01*
X132240000Y-102595000D02*
X129505000Y-99860000D01*
X129505000Y-99860000D02*
X126044213Y-99860000D01*
X125629999Y-101400001D02*
X124630000Y-102400000D01*
X133040000Y-103245000D02*
X132240000Y-103245000D01*
X132240000Y-103245000D02*
X130395001Y-101400001D01*
X130395001Y-101400001D02*
X125629999Y-101400001D01*
X133040000Y-105195000D02*
X132240000Y-105195000D01*
X132240000Y-105195000D02*
X129955000Y-107480000D01*
X129955000Y-107480000D02*
X126044213Y-107480000D01*
X126044213Y-107480000D02*
X124630000Y-107480000D01*
X133040000Y-105845000D02*
X132240000Y-105845000D01*
X132240000Y-105845000D02*
X128065000Y-110020000D01*
X128065000Y-110020000D02*
X126044213Y-110020000D01*
X126044213Y-110020000D02*
X124630000Y-110020000D01*
X133040000Y-106495000D02*
X132240000Y-106495000D01*
X132240000Y-106495000D02*
X126175000Y-112560000D01*
X126175000Y-112560000D02*
X126044213Y-112560000D01*
X126044213Y-112560000D02*
X124630000Y-112560000D01*
X133040000Y-107145000D02*
X132354998Y-107145000D01*
X132354998Y-107145000D02*
X125629999Y-113869999D01*
X125629999Y-113869999D02*
X125629999Y-114100001D01*
X125629999Y-114100001D02*
X124630000Y-115100000D01*
X133040000Y-107795000D02*
X132341408Y-107795000D01*
X132341408Y-107795000D02*
X126080009Y-114056399D01*
X126080009Y-114056399D02*
X126080009Y-116189991D01*
X126080009Y-116189991D02*
X125629999Y-116640001D01*
X125629999Y-116640001D02*
X124630000Y-117640000D01*
X127000000Y-114135000D02*
X127000000Y-117810000D01*
X133040000Y-108445000D02*
X132690000Y-108445000D01*
X132690000Y-108445000D02*
X127000000Y-114135000D01*
X127000000Y-117810000D02*
X124630000Y-120180000D01*
X143950001Y-90699999D02*
X144950000Y-89700000D01*
X138740000Y-99995000D02*
X139480000Y-99995000D01*
X139480000Y-99995000D02*
X142724979Y-96750021D01*
X142724979Y-96750021D02*
X142724979Y-91925021D01*
X142724979Y-91925021D02*
X143950001Y-90699999D01*
X143174989Y-94015011D02*
X144950000Y-92240000D01*
X138740000Y-100645000D02*
X139540000Y-100645000D01*
X139540000Y-100645000D02*
X143174989Y-97010011D01*
X143174989Y-97010011D02*
X143174989Y-94015011D01*
X143950001Y-95779999D02*
X144950000Y-94780000D01*
X138740000Y-101295000D02*
X139540000Y-101295000D01*
X139540000Y-101295000D02*
X143624999Y-97210001D01*
X143624999Y-97210001D02*
X143624999Y-96105001D01*
X143624999Y-96105001D02*
X143950001Y-95779999D01*
X143950001Y-98319999D02*
X144950000Y-97320000D01*
X138740000Y-101945000D02*
X139540000Y-101945000D01*
X139540000Y-101945000D02*
X143165001Y-98319999D01*
X143165001Y-98319999D02*
X143950001Y-98319999D01*
X143535787Y-99860000D02*
X144950000Y-99860000D01*
X138740000Y-102595000D02*
X137940000Y-102595000D01*
X138740000Y-102595000D02*
X139540000Y-102595000D01*
X139540000Y-102595000D02*
X142275000Y-99860000D01*
X142275000Y-99860000D02*
X143535787Y-99860000D01*
X143950001Y-101400001D02*
X144950000Y-102400000D01*
X138740000Y-103245000D02*
X140038590Y-103245000D01*
X140038590Y-103245000D02*
X141883589Y-101400001D01*
X141883589Y-101400001D02*
X143950001Y-101400001D01*
X138740000Y-106495000D02*
X139540000Y-106495000D01*
X139540000Y-106495000D02*
X143454999Y-110409999D01*
X143454999Y-110409999D02*
X143454999Y-111149999D01*
X143454999Y-111149999D02*
X143780001Y-111475001D01*
X143780001Y-111475001D02*
X144780000Y-112475000D01*
X138740000Y-107145000D02*
X139540000Y-107145000D01*
X139540000Y-107145000D02*
X143004989Y-110609989D01*
X143004989Y-110609989D02*
X143004989Y-113239989D01*
X143004989Y-113239989D02*
X143780001Y-114015001D01*
X143780001Y-114015001D02*
X144780000Y-115015000D01*
X138740000Y-107795000D02*
X137640000Y-107795000D01*
X137640000Y-107795000D02*
X137160000Y-107315000D01*
X138740000Y-107795000D02*
X139540000Y-107795000D01*
X139540000Y-107795000D02*
X142554979Y-110809979D01*
X142554979Y-110809979D02*
X142554979Y-115329979D01*
X142554979Y-115329979D02*
X143780001Y-116555001D01*
X143780001Y-116555001D02*
X144780000Y-117555000D01*
X121160000Y-81010000D02*
X121160000Y-84332821D01*
X121160000Y-84332821D02*
X123190000Y-86362820D01*
X123190000Y-86362820D02*
X130177820Y-86362820D01*
X130177820Y-86362820D02*
X131442180Y-87627180D01*
X131442180Y-87627180D02*
X131442180Y-94615000D01*
X131442180Y-94615000D02*
X134620000Y-97792820D01*
X134620000Y-97792820D02*
X134620000Y-107315000D01*
X134675001Y-107370001D02*
X135750000Y-108445000D01*
X135750000Y-108445000D02*
X137940000Y-108445000D01*
X137940000Y-108445000D02*
X138740000Y-108445000D01*
X138740000Y-108445000D02*
X139480000Y-108445000D01*
X142104969Y-111069969D02*
X142104969Y-117419969D01*
X142104969Y-117419969D02*
X144780000Y-120095000D01*
X139480000Y-108445000D02*
X142104969Y-111069969D01*
X104480000Y-85090000D02*
X104480000Y-80985000D01*
X104480000Y-80985000D02*
X104140000Y-80645000D01*
X125095000Y-83185000D02*
X125095000Y-79375000D01*
X126365000Y-84455000D02*
X125095000Y-83185000D01*
X132080000Y-84455000D02*
X126365000Y-84455000D01*
X133350000Y-85725000D02*
X132080000Y-84455000D01*
X133350000Y-95250000D02*
X133350000Y-85725000D01*
X137160000Y-99060000D02*
X133350000Y-95250000D01*
X137160000Y-100965000D02*
X137160000Y-99060000D01*
X137160000Y-104415000D02*
X137160000Y-100965000D01*
X138740000Y-105195000D02*
X137940000Y-105195000D01*
X137940000Y-105195000D02*
X137160000Y-104415000D01*
X138740000Y-105195000D02*
X140038590Y-105195000D01*
X140038590Y-105195000D02*
X142238590Y-107395000D01*
X142238590Y-107395000D02*
X143365787Y-107395000D01*
X143365787Y-107395000D02*
X144780000Y-107395000D01*
X132715000Y-95251410D02*
X136709989Y-99246399D01*
X131445000Y-85725000D02*
X132715000Y-86995000D01*
X132715000Y-86995000D02*
X132715000Y-95251410D01*
X125095000Y-85725000D02*
X131445000Y-85725000D01*
X123825000Y-84455000D02*
X125095000Y-85725000D01*
X123700000Y-81010000D02*
X123700000Y-84455000D01*
X123700000Y-84455000D02*
X123825000Y-84455000D01*
X137940000Y-105845000D02*
X138740000Y-105845000D01*
X137593589Y-105845000D02*
X137940000Y-105845000D01*
X136709989Y-104961400D02*
X137593589Y-105845000D01*
X136709989Y-99246399D02*
X136709989Y-104961400D01*
X138740000Y-105845000D02*
X139540000Y-105845000D01*
X139540000Y-105845000D02*
X142630001Y-108935001D01*
X142630001Y-108935001D02*
X143780001Y-108935001D01*
X143780001Y-108935001D02*
X144780000Y-109935000D01*
D28*
G36*
X174498000Y-87501988D02*
X134110000Y-87181448D01*
X134110000Y-85725000D01*
X134085697Y-85602820D01*
X134052148Y-85434160D01*
X133887401Y-85187599D01*
X133244802Y-84545000D01*
X136356309Y-84545000D01*
X136589698Y-84448327D01*
X136768327Y-84269699D01*
X136865000Y-84036310D01*
X136865000Y-82690000D01*
X137582560Y-82690000D01*
X137582560Y-83890000D01*
X137626838Y-84125317D01*
X137765910Y-84341441D01*
X137978110Y-84486431D01*
X138230000Y-84537440D01*
X140430000Y-84537440D01*
X140665317Y-84493162D01*
X140881441Y-84354090D01*
X141026431Y-84141890D01*
X141057189Y-83990000D01*
X141757666Y-83990000D01*
X141771838Y-84065317D01*
X141910910Y-84281441D01*
X142123110Y-84426431D01*
X142375000Y-84477440D01*
X143125000Y-84477440D01*
X143360317Y-84433162D01*
X143576441Y-84294090D01*
X143721431Y-84081890D01*
X143740039Y-83990000D01*
X154280000Y-83990000D01*
X154570839Y-83932148D01*
X154817401Y-83767401D01*
X156720000Y-81864802D01*
X160212599Y-85357401D01*
X160459161Y-85522148D01*
X160750000Y-85580000D01*
X164482560Y-85580000D01*
X164482560Y-86570000D01*
X164526838Y-86805317D01*
X164665910Y-87021441D01*
X164878110Y-87166431D01*
X165130000Y-87217440D01*
X168630000Y-87217440D01*
X168865317Y-87173162D01*
X169081441Y-87034090D01*
X169226431Y-86821890D01*
X169277440Y-86570000D01*
X169277440Y-83070000D01*
X169233162Y-82834683D01*
X169094090Y-82618559D01*
X168881890Y-82473569D01*
X168630000Y-82422560D01*
X165130000Y-82422560D01*
X164894683Y-82466838D01*
X164678559Y-82605910D01*
X164565000Y-82772109D01*
X164565000Y-82105750D01*
X164406250Y-81947000D01*
X162307000Y-81947000D01*
X162307000Y-81967000D01*
X162053000Y-81967000D01*
X162053000Y-81947000D01*
X159953750Y-81947000D01*
X159795000Y-82105750D01*
X159795000Y-82790198D01*
X157986643Y-80981841D01*
X158116431Y-80791890D01*
X158167440Y-80540000D01*
X158167440Y-79943691D01*
X159795000Y-79943691D01*
X159795000Y-81534250D01*
X159953750Y-81693000D01*
X162053000Y-81693000D01*
X162053000Y-79593750D01*
X162307000Y-79593750D01*
X162307000Y-81693000D01*
X164406250Y-81693000D01*
X164565000Y-81534250D01*
X164565000Y-80865304D01*
X164591673Y-80929698D01*
X164770301Y-81108327D01*
X165003690Y-81205000D01*
X166594250Y-81205000D01*
X166753000Y-81046250D01*
X166753000Y-78947000D01*
X167007000Y-78947000D01*
X167007000Y-81046250D01*
X167165750Y-81205000D01*
X168756310Y-81205000D01*
X168989699Y-81108327D01*
X169168327Y-80929698D01*
X169265000Y-80696309D01*
X169265000Y-79105750D01*
X169106250Y-78947000D01*
X167007000Y-78947000D01*
X166753000Y-78947000D01*
X164653750Y-78947000D01*
X164495000Y-79105750D01*
X164495000Y-79774696D01*
X164468327Y-79710302D01*
X164289699Y-79531673D01*
X164056310Y-79435000D01*
X162465750Y-79435000D01*
X162307000Y-79593750D01*
X162053000Y-79593750D01*
X161894250Y-79435000D01*
X160303690Y-79435000D01*
X160070301Y-79531673D01*
X159891673Y-79710302D01*
X159795000Y-79943691D01*
X158167440Y-79943691D01*
X158167440Y-78940000D01*
X158123162Y-78704683D01*
X157984090Y-78488559D01*
X157771890Y-78343569D01*
X157520000Y-78292560D01*
X155920000Y-78292560D01*
X155684683Y-78336838D01*
X155468559Y-78475910D01*
X155323569Y-78688110D01*
X155275354Y-78926201D01*
X155227745Y-78911861D01*
X154399605Y-79740000D01*
X155227745Y-80568139D01*
X155275167Y-80553855D01*
X155316838Y-80775317D01*
X155451152Y-80984046D01*
X153965198Y-82470000D01*
X143742334Y-82470000D01*
X143728162Y-82394683D01*
X143661671Y-82291354D01*
X143663327Y-82289698D01*
X143760000Y-82056309D01*
X143760000Y-81615750D01*
X143601250Y-81457000D01*
X142877000Y-81457000D01*
X142877000Y-81477000D01*
X142623000Y-81477000D01*
X142623000Y-81457000D01*
X141898750Y-81457000D01*
X141740000Y-81615750D01*
X141740000Y-82056309D01*
X141836673Y-82289698D01*
X141838043Y-82291068D01*
X141778569Y-82378110D01*
X141759961Y-82470000D01*
X141036044Y-82470000D01*
X141033162Y-82454683D01*
X140894090Y-82238559D01*
X140772473Y-82155462D01*
X140789698Y-82148327D01*
X140968327Y-81969699D01*
X141065000Y-81736310D01*
X141065000Y-81295750D01*
X140906250Y-81137000D01*
X139457000Y-81137000D01*
X139457000Y-81157000D01*
X139203000Y-81157000D01*
X139203000Y-81137000D01*
X137753750Y-81137000D01*
X137595000Y-81295750D01*
X137595000Y-81736310D01*
X137691673Y-81969699D01*
X137870302Y-82148327D01*
X137887838Y-82155591D01*
X137778559Y-82225910D01*
X137633569Y-82438110D01*
X137582560Y-82690000D01*
X136865000Y-82690000D01*
X136865000Y-81033690D01*
X136855187Y-81010000D01*
X136865000Y-80986310D01*
X136865000Y-77983690D01*
X136768327Y-77750301D01*
X136589698Y-77571673D01*
X136356309Y-77475000D01*
X133053691Y-77475000D01*
X133030000Y-77484813D01*
X133006309Y-77475000D01*
X129703691Y-77475000D01*
X129470302Y-77571673D01*
X129291673Y-77750301D01*
X129195000Y-77983690D01*
X129195000Y-80986310D01*
X129204813Y-81010000D01*
X129195000Y-81033690D01*
X129195000Y-83695000D01*
X126679802Y-83695000D01*
X125855000Y-82870198D01*
X125855000Y-79852473D01*
X125979846Y-79551810D01*
X125980153Y-79199735D01*
X125845704Y-78874343D01*
X125596967Y-78625171D01*
X125271810Y-78490154D01*
X124919735Y-78489847D01*
X124594343Y-78624296D01*
X124345171Y-78873033D01*
X124210154Y-79198190D01*
X124209847Y-79550265D01*
X124231032Y-79601536D01*
X123700000Y-79495907D01*
X123131715Y-79608946D01*
X122649946Y-79930853D01*
X122430000Y-80260026D01*
X122210054Y-79930853D01*
X121728285Y-79608946D01*
X121160000Y-79495907D01*
X120591715Y-79608946D01*
X120109946Y-79930853D01*
X119890000Y-80260026D01*
X119670054Y-79930853D01*
X119188285Y-79608946D01*
X118620000Y-79495907D01*
X118051715Y-79608946D01*
X117569946Y-79930853D01*
X117350000Y-80260026D01*
X117130054Y-79930853D01*
X116840000Y-79737046D01*
X116840000Y-78544802D01*
X119059802Y-76325000D01*
X142126999Y-76325000D01*
X141923559Y-76455910D01*
X141778569Y-76668110D01*
X141759961Y-76760000D01*
X139690000Y-76760000D01*
X139399161Y-76817852D01*
X139152599Y-76982599D01*
X138792599Y-77342599D01*
X138699080Y-77482560D01*
X138230000Y-77482560D01*
X137994683Y-77526838D01*
X137778559Y-77665910D01*
X137633569Y-77878110D01*
X137582560Y-78130000D01*
X137582560Y-79330000D01*
X137626838Y-79565317D01*
X137765910Y-79781441D01*
X137887527Y-79864538D01*
X137870302Y-79871673D01*
X137691673Y-80050301D01*
X137595000Y-80283690D01*
X137595000Y-80724250D01*
X137753750Y-80883000D01*
X139203000Y-80883000D01*
X139203000Y-80863000D01*
X139457000Y-80863000D01*
X139457000Y-80883000D01*
X140906250Y-80883000D01*
X141065000Y-80724250D01*
X141065000Y-80283690D01*
X140968327Y-80050301D01*
X140789698Y-79871673D01*
X140772162Y-79864409D01*
X140881441Y-79794090D01*
X140941801Y-79705750D01*
X141740000Y-79705750D01*
X141740000Y-80146309D01*
X141834727Y-80375000D01*
X141740000Y-80603691D01*
X141740000Y-81044250D01*
X141898750Y-81203000D01*
X142623000Y-81203000D01*
X142623000Y-79547000D01*
X142877000Y-79547000D01*
X142877000Y-81203000D01*
X143601250Y-81203000D01*
X143760000Y-81044250D01*
X143760000Y-80603691D01*
X143665273Y-80375000D01*
X143760000Y-80146309D01*
X143760000Y-79705750D01*
X143601250Y-79547000D01*
X142877000Y-79547000D01*
X142623000Y-79547000D01*
X141898750Y-79547000D01*
X141740000Y-79705750D01*
X140941801Y-79705750D01*
X141026431Y-79581890D01*
X141077440Y-79330000D01*
X141077440Y-78280000D01*
X141757666Y-78280000D01*
X141771838Y-78355317D01*
X141838329Y-78458646D01*
X141836673Y-78460302D01*
X141740000Y-78693691D01*
X141740000Y-79134250D01*
X141898750Y-79293000D01*
X142623000Y-79293000D01*
X142623000Y-79273000D01*
X142877000Y-79273000D01*
X142877000Y-79293000D01*
X143601250Y-79293000D01*
X143760000Y-79134250D01*
X143760000Y-78693691D01*
X143663327Y-78460302D01*
X143661957Y-78458932D01*
X143721431Y-78371890D01*
X143740039Y-78280000D01*
X145075198Y-78280000D01*
X145293357Y-78498159D01*
X145163569Y-78688110D01*
X145112560Y-78940000D01*
X145112560Y-80540000D01*
X145156838Y-80775317D01*
X145295910Y-80991441D01*
X145508110Y-81136431D01*
X145760000Y-81187440D01*
X147360000Y-81187440D01*
X147595317Y-81143162D01*
X147811441Y-81004090D01*
X147956431Y-80791890D01*
X147965370Y-80747745D01*
X148231861Y-80747745D01*
X148305995Y-80993864D01*
X148843223Y-81186965D01*
X149413454Y-81159778D01*
X149814005Y-80993864D01*
X149888139Y-80747745D01*
X153391861Y-80747745D01*
X153465995Y-80993864D01*
X154003223Y-81186965D01*
X154573454Y-81159778D01*
X154974005Y-80993864D01*
X155048139Y-80747745D01*
X154220000Y-79919605D01*
X153391861Y-80747745D01*
X149888139Y-80747745D01*
X149060000Y-79919605D01*
X148231861Y-80747745D01*
X147965370Y-80747745D01*
X148004646Y-80553799D01*
X148052255Y-80568139D01*
X148880395Y-79740000D01*
X149239605Y-79740000D01*
X150067745Y-80568139D01*
X150313864Y-80494005D01*
X150506965Y-79956777D01*
X150486295Y-79523223D01*
X152773035Y-79523223D01*
X152800222Y-80093454D01*
X152966136Y-80494005D01*
X153212255Y-80568139D01*
X154040395Y-79740000D01*
X153212255Y-78911861D01*
X152966136Y-78985995D01*
X152773035Y-79523223D01*
X150486295Y-79523223D01*
X150479778Y-79386546D01*
X150313864Y-78985995D01*
X150067745Y-78911861D01*
X149239605Y-79740000D01*
X148880395Y-79740000D01*
X148052255Y-78911861D01*
X148004833Y-78926145D01*
X147968351Y-78732255D01*
X148231861Y-78732255D01*
X149060000Y-79560395D01*
X149888139Y-78732255D01*
X153391861Y-78732255D01*
X154220000Y-79560395D01*
X155048139Y-78732255D01*
X154974005Y-78486136D01*
X154436777Y-78293035D01*
X153866546Y-78320222D01*
X153465995Y-78486136D01*
X153391861Y-78732255D01*
X149888139Y-78732255D01*
X149814005Y-78486136D01*
X149276777Y-78293035D01*
X148706546Y-78320222D01*
X148305995Y-78486136D01*
X148231861Y-78732255D01*
X147968351Y-78732255D01*
X147963162Y-78704683D01*
X147824090Y-78488559D01*
X147611890Y-78343569D01*
X147360000Y-78292560D01*
X147320000Y-78292560D01*
X147320000Y-76943691D01*
X164495000Y-76943691D01*
X164495000Y-78534250D01*
X164653750Y-78693000D01*
X166753000Y-78693000D01*
X166753000Y-76593750D01*
X167007000Y-76593750D01*
X167007000Y-78693000D01*
X169106250Y-78693000D01*
X169265000Y-78534250D01*
X169265000Y-76943691D01*
X169168327Y-76710302D01*
X168989699Y-76531673D01*
X168756310Y-76435000D01*
X167165750Y-76435000D01*
X167007000Y-76593750D01*
X166753000Y-76593750D01*
X166594250Y-76435000D01*
X165003690Y-76435000D01*
X164770301Y-76531673D01*
X164591673Y-76710302D01*
X164495000Y-76943691D01*
X147320000Y-76943691D01*
X147320000Y-76075000D01*
X147262148Y-75784161D01*
X147097401Y-75537599D01*
X147094802Y-75535000D01*
X174498000Y-75535000D01*
X174498000Y-87501988D01*
X174498000Y-87501988D01*
G37*
X174498000Y-87501988D02*
X134110000Y-87181448D01*
X134110000Y-85725000D01*
X134085697Y-85602820D01*
X134052148Y-85434160D01*
X133887401Y-85187599D01*
X133244802Y-84545000D01*
X136356309Y-84545000D01*
X136589698Y-84448327D01*
X136768327Y-84269699D01*
X136865000Y-84036310D01*
X136865000Y-82690000D01*
X137582560Y-82690000D01*
X137582560Y-83890000D01*
X137626838Y-84125317D01*
X137765910Y-84341441D01*
X137978110Y-84486431D01*
X138230000Y-84537440D01*
X140430000Y-84537440D01*
X140665317Y-84493162D01*
X140881441Y-84354090D01*
X141026431Y-84141890D01*
X141057189Y-83990000D01*
X141757666Y-83990000D01*
X141771838Y-84065317D01*
X141910910Y-84281441D01*
X142123110Y-84426431D01*
X142375000Y-84477440D01*
X143125000Y-84477440D01*
X143360317Y-84433162D01*
X143576441Y-84294090D01*
X143721431Y-84081890D01*
X143740039Y-83990000D01*
X154280000Y-83990000D01*
X154570839Y-83932148D01*
X154817401Y-83767401D01*
X156720000Y-81864802D01*
X160212599Y-85357401D01*
X160459161Y-85522148D01*
X160750000Y-85580000D01*
X164482560Y-85580000D01*
X164482560Y-86570000D01*
X164526838Y-86805317D01*
X164665910Y-87021441D01*
X164878110Y-87166431D01*
X165130000Y-87217440D01*
X168630000Y-87217440D01*
X168865317Y-87173162D01*
X169081441Y-87034090D01*
X169226431Y-86821890D01*
X169277440Y-86570000D01*
X169277440Y-83070000D01*
X169233162Y-82834683D01*
X169094090Y-82618559D01*
X168881890Y-82473569D01*
X168630000Y-82422560D01*
X165130000Y-82422560D01*
X164894683Y-82466838D01*
X164678559Y-82605910D01*
X164565000Y-82772109D01*
X164565000Y-82105750D01*
X164406250Y-81947000D01*
X162307000Y-81947000D01*
X162307000Y-81967000D01*
X162053000Y-81967000D01*
X162053000Y-81947000D01*
X159953750Y-81947000D01*
X159795000Y-82105750D01*
X159795000Y-82790198D01*
X157986643Y-80981841D01*
X158116431Y-80791890D01*
X158167440Y-80540000D01*
X158167440Y-79943691D01*
X159795000Y-79943691D01*
X159795000Y-81534250D01*
X159953750Y-81693000D01*
X162053000Y-81693000D01*
X162053000Y-79593750D01*
X162307000Y-79593750D01*
X162307000Y-81693000D01*
X164406250Y-81693000D01*
X164565000Y-81534250D01*
X164565000Y-80865304D01*
X164591673Y-80929698D01*
X164770301Y-81108327D01*
X165003690Y-81205000D01*
X166594250Y-81205000D01*
X166753000Y-81046250D01*
X166753000Y-78947000D01*
X167007000Y-78947000D01*
X167007000Y-81046250D01*
X167165750Y-81205000D01*
X168756310Y-81205000D01*
X168989699Y-81108327D01*
X169168327Y-80929698D01*
X169265000Y-80696309D01*
X169265000Y-79105750D01*
X169106250Y-78947000D01*
X167007000Y-78947000D01*
X166753000Y-78947000D01*
X164653750Y-78947000D01*
X164495000Y-79105750D01*
X164495000Y-79774696D01*
X164468327Y-79710302D01*
X164289699Y-79531673D01*
X164056310Y-79435000D01*
X162465750Y-79435000D01*
X162307000Y-79593750D01*
X162053000Y-79593750D01*
X161894250Y-79435000D01*
X160303690Y-79435000D01*
X160070301Y-79531673D01*
X159891673Y-79710302D01*
X159795000Y-79943691D01*
X158167440Y-79943691D01*
X158167440Y-78940000D01*
X158123162Y-78704683D01*
X157984090Y-78488559D01*
X157771890Y-78343569D01*
X157520000Y-78292560D01*
X155920000Y-78292560D01*
X155684683Y-78336838D01*
X155468559Y-78475910D01*
X155323569Y-78688110D01*
X155275354Y-78926201D01*
X155227745Y-78911861D01*
X154399605Y-79740000D01*
X155227745Y-80568139D01*
X155275167Y-80553855D01*
X155316838Y-80775317D01*
X155451152Y-80984046D01*
X153965198Y-82470000D01*
X143742334Y-82470000D01*
X143728162Y-82394683D01*
X143661671Y-82291354D01*
X143663327Y-82289698D01*
X143760000Y-82056309D01*
X143760000Y-81615750D01*
X143601250Y-81457000D01*
X142877000Y-81457000D01*
X142877000Y-81477000D01*
X142623000Y-81477000D01*
X142623000Y-81457000D01*
X141898750Y-81457000D01*
X141740000Y-81615750D01*
X141740000Y-82056309D01*
X141836673Y-82289698D01*
X141838043Y-82291068D01*
X141778569Y-82378110D01*
X141759961Y-82470000D01*
X141036044Y-82470000D01*
X141033162Y-82454683D01*
X140894090Y-82238559D01*
X140772473Y-82155462D01*
X140789698Y-82148327D01*
X140968327Y-81969699D01*
X141065000Y-81736310D01*
X141065000Y-81295750D01*
X140906250Y-81137000D01*
X139457000Y-81137000D01*
X139457000Y-81157000D01*
X139203000Y-81157000D01*
X139203000Y-81137000D01*
X137753750Y-81137000D01*
X137595000Y-81295750D01*
X137595000Y-81736310D01*
X137691673Y-81969699D01*
X137870302Y-82148327D01*
X137887838Y-82155591D01*
X137778559Y-82225910D01*
X137633569Y-82438110D01*
X137582560Y-82690000D01*
X136865000Y-82690000D01*
X136865000Y-81033690D01*
X136855187Y-81010000D01*
X136865000Y-80986310D01*
X136865000Y-77983690D01*
X136768327Y-77750301D01*
X136589698Y-77571673D01*
X136356309Y-77475000D01*
X133053691Y-77475000D01*
X133030000Y-77484813D01*
X133006309Y-77475000D01*
X129703691Y-77475000D01*
X129470302Y-77571673D01*
X129291673Y-77750301D01*
X129195000Y-77983690D01*
X129195000Y-80986310D01*
X129204813Y-81010000D01*
X129195000Y-81033690D01*
X129195000Y-83695000D01*
X126679802Y-83695000D01*
X125855000Y-82870198D01*
X125855000Y-79852473D01*
X125979846Y-79551810D01*
X125980153Y-79199735D01*
X125845704Y-78874343D01*
X125596967Y-78625171D01*
X125271810Y-78490154D01*
X124919735Y-78489847D01*
X124594343Y-78624296D01*
X124345171Y-78873033D01*
X124210154Y-79198190D01*
X124209847Y-79550265D01*
X124231032Y-79601536D01*
X123700000Y-79495907D01*
X123131715Y-79608946D01*
X122649946Y-79930853D01*
X122430000Y-80260026D01*
X122210054Y-79930853D01*
X121728285Y-79608946D01*
X121160000Y-79495907D01*
X120591715Y-79608946D01*
X120109946Y-79930853D01*
X119890000Y-80260026D01*
X119670054Y-79930853D01*
X119188285Y-79608946D01*
X118620000Y-79495907D01*
X118051715Y-79608946D01*
X117569946Y-79930853D01*
X117350000Y-80260026D01*
X117130054Y-79930853D01*
X116840000Y-79737046D01*
X116840000Y-78544802D01*
X119059802Y-76325000D01*
X142126999Y-76325000D01*
X141923559Y-76455910D01*
X141778569Y-76668110D01*
X141759961Y-76760000D01*
X139690000Y-76760000D01*
X139399161Y-76817852D01*
X139152599Y-76982599D01*
X138792599Y-77342599D01*
X138699080Y-77482560D01*
X138230000Y-77482560D01*
X137994683Y-77526838D01*
X137778559Y-77665910D01*
X137633569Y-77878110D01*
X137582560Y-78130000D01*
X137582560Y-79330000D01*
X137626838Y-79565317D01*
X137765910Y-79781441D01*
X137887527Y-79864538D01*
X137870302Y-79871673D01*
X137691673Y-80050301D01*
X137595000Y-80283690D01*
X137595000Y-80724250D01*
X137753750Y-80883000D01*
X139203000Y-80883000D01*
X139203000Y-80863000D01*
X139457000Y-80863000D01*
X139457000Y-80883000D01*
X140906250Y-80883000D01*
X141065000Y-80724250D01*
X141065000Y-80283690D01*
X140968327Y-80050301D01*
X140789698Y-79871673D01*
X140772162Y-79864409D01*
X140881441Y-79794090D01*
X140941801Y-79705750D01*
X141740000Y-79705750D01*
X141740000Y-80146309D01*
X141834727Y-80375000D01*
X141740000Y-80603691D01*
X141740000Y-81044250D01*
X141898750Y-81203000D01*
X142623000Y-81203000D01*
X142623000Y-79547000D01*
X142877000Y-79547000D01*
X142877000Y-81203000D01*
X143601250Y-81203000D01*
X143760000Y-81044250D01*
X143760000Y-80603691D01*
X143665273Y-80375000D01*
X143760000Y-80146309D01*
X143760000Y-79705750D01*
X143601250Y-79547000D01*
X142877000Y-79547000D01*
X142623000Y-79547000D01*
X141898750Y-79547000D01*
X141740000Y-79705750D01*
X140941801Y-79705750D01*
X141026431Y-79581890D01*
X141077440Y-79330000D01*
X141077440Y-78280000D01*
X141757666Y-78280000D01*
X141771838Y-78355317D01*
X141838329Y-78458646D01*
X141836673Y-78460302D01*
X141740000Y-78693691D01*
X141740000Y-79134250D01*
X141898750Y-79293000D01*
X142623000Y-79293000D01*
X142623000Y-79273000D01*
X142877000Y-79273000D01*
X142877000Y-79293000D01*
X143601250Y-79293000D01*
X143760000Y-79134250D01*
X143760000Y-78693691D01*
X143663327Y-78460302D01*
X143661957Y-78458932D01*
X143721431Y-78371890D01*
X143740039Y-78280000D01*
X145075198Y-78280000D01*
X145293357Y-78498159D01*
X145163569Y-78688110D01*
X145112560Y-78940000D01*
X145112560Y-80540000D01*
X145156838Y-80775317D01*
X145295910Y-80991441D01*
X145508110Y-81136431D01*
X145760000Y-81187440D01*
X147360000Y-81187440D01*
X147595317Y-81143162D01*
X147811441Y-81004090D01*
X147956431Y-80791890D01*
X147965370Y-80747745D01*
X148231861Y-80747745D01*
X148305995Y-80993864D01*
X148843223Y-81186965D01*
X149413454Y-81159778D01*
X149814005Y-80993864D01*
X149888139Y-80747745D01*
X153391861Y-80747745D01*
X153465995Y-80993864D01*
X154003223Y-81186965D01*
X154573454Y-81159778D01*
X154974005Y-80993864D01*
X155048139Y-80747745D01*
X154220000Y-79919605D01*
X153391861Y-80747745D01*
X149888139Y-80747745D01*
X149060000Y-79919605D01*
X148231861Y-80747745D01*
X147965370Y-80747745D01*
X148004646Y-80553799D01*
X148052255Y-80568139D01*
X148880395Y-79740000D01*
X149239605Y-79740000D01*
X150067745Y-80568139D01*
X150313864Y-80494005D01*
X150506965Y-79956777D01*
X150486295Y-79523223D01*
X152773035Y-79523223D01*
X152800222Y-80093454D01*
X152966136Y-80494005D01*
X153212255Y-80568139D01*
X154040395Y-79740000D01*
X153212255Y-78911861D01*
X152966136Y-78985995D01*
X152773035Y-79523223D01*
X150486295Y-79523223D01*
X150479778Y-79386546D01*
X150313864Y-78985995D01*
X150067745Y-78911861D01*
X149239605Y-79740000D01*
X148880395Y-79740000D01*
X148052255Y-78911861D01*
X148004833Y-78926145D01*
X147968351Y-78732255D01*
X148231861Y-78732255D01*
X149060000Y-79560395D01*
X149888139Y-78732255D01*
X153391861Y-78732255D01*
X154220000Y-79560395D01*
X155048139Y-78732255D01*
X154974005Y-78486136D01*
X154436777Y-78293035D01*
X153866546Y-78320222D01*
X153465995Y-78486136D01*
X153391861Y-78732255D01*
X149888139Y-78732255D01*
X149814005Y-78486136D01*
X149276777Y-78293035D01*
X148706546Y-78320222D01*
X148305995Y-78486136D01*
X148231861Y-78732255D01*
X147968351Y-78732255D01*
X147963162Y-78704683D01*
X147824090Y-78488559D01*
X147611890Y-78343569D01*
X147360000Y-78292560D01*
X147320000Y-78292560D01*
X147320000Y-76943691D01*
X164495000Y-76943691D01*
X164495000Y-78534250D01*
X164653750Y-78693000D01*
X166753000Y-78693000D01*
X166753000Y-76593750D01*
X167007000Y-76593750D01*
X167007000Y-78693000D01*
X169106250Y-78693000D01*
X169265000Y-78534250D01*
X169265000Y-76943691D01*
X169168327Y-76710302D01*
X168989699Y-76531673D01*
X168756310Y-76435000D01*
X167165750Y-76435000D01*
X167007000Y-76593750D01*
X166753000Y-76593750D01*
X166594250Y-76435000D01*
X165003690Y-76435000D01*
X164770301Y-76531673D01*
X164591673Y-76710302D01*
X164495000Y-76943691D01*
X147320000Y-76943691D01*
X147320000Y-76075000D01*
X147262148Y-75784161D01*
X147097401Y-75537599D01*
X147094802Y-75535000D01*
X174498000Y-75535000D01*
X174498000Y-87501988D01*
G36*
X115542599Y-77692599D02*
X115377852Y-77939161D01*
X115320000Y-78230000D01*
X115320000Y-79737046D01*
X115029946Y-79930853D01*
X114810000Y-80260026D01*
X114590054Y-79930853D01*
X114108285Y-79608946D01*
X113540000Y-79495907D01*
X112971715Y-79608946D01*
X112489946Y-79930853D01*
X112460597Y-79974777D01*
X112388327Y-79800302D01*
X112209699Y-79621673D01*
X111976310Y-79525000D01*
X111285750Y-79525000D01*
X111127000Y-79683750D01*
X111127000Y-80883000D01*
X111147000Y-80883000D01*
X111147000Y-81137000D01*
X111127000Y-81137000D01*
X111127000Y-82336250D01*
X111285750Y-82495000D01*
X111976310Y-82495000D01*
X112209699Y-82398327D01*
X112388327Y-82219698D01*
X112460597Y-82045223D01*
X112489946Y-82089147D01*
X112971715Y-82411054D01*
X113540000Y-82524093D01*
X114108285Y-82411054D01*
X114590054Y-82089147D01*
X114810000Y-81759974D01*
X115029946Y-82089147D01*
X115320000Y-82282954D01*
X115320000Y-84140198D01*
X115130198Y-84330000D01*
X107835105Y-84330000D01*
X107744090Y-84188559D01*
X107531890Y-84043569D01*
X107280000Y-83992560D01*
X106080000Y-83992560D01*
X105844683Y-84036838D01*
X105628559Y-84175910D01*
X105580866Y-84245711D01*
X105544090Y-84188559D01*
X105331890Y-84043569D01*
X105240000Y-84024961D01*
X105240000Y-81900660D01*
X105241673Y-81904699D01*
X105420302Y-82083327D01*
X105653691Y-82180000D01*
X106394250Y-82180000D01*
X106553000Y-82021250D01*
X106553000Y-80772000D01*
X106807000Y-80772000D01*
X106807000Y-82021250D01*
X106965750Y-82180000D01*
X107706309Y-82180000D01*
X107939698Y-82083327D01*
X108118327Y-81904699D01*
X108215000Y-81671310D01*
X108215000Y-81295750D01*
X109515000Y-81295750D01*
X109515000Y-81986309D01*
X109611673Y-82219698D01*
X109790301Y-82398327D01*
X110023690Y-82495000D01*
X110714250Y-82495000D01*
X110873000Y-82336250D01*
X110873000Y-81137000D01*
X109673750Y-81137000D01*
X109515000Y-81295750D01*
X108215000Y-81295750D01*
X108215000Y-80930750D01*
X108056250Y-80772000D01*
X106807000Y-80772000D01*
X106553000Y-80772000D01*
X106533000Y-80772000D01*
X106533000Y-80518000D01*
X106553000Y-80518000D01*
X106553000Y-79268750D01*
X106807000Y-79268750D01*
X106807000Y-80518000D01*
X108056250Y-80518000D01*
X108215000Y-80359250D01*
X108215000Y-80033691D01*
X109515000Y-80033691D01*
X109515000Y-80724250D01*
X109673750Y-80883000D01*
X110873000Y-80883000D01*
X110873000Y-79683750D01*
X110714250Y-79525000D01*
X110023690Y-79525000D01*
X109790301Y-79621673D01*
X109611673Y-79800302D01*
X109515000Y-80033691D01*
X108215000Y-80033691D01*
X108215000Y-79618690D01*
X108118327Y-79385301D01*
X107939698Y-79206673D01*
X107706309Y-79110000D01*
X106965750Y-79110000D01*
X106807000Y-79268750D01*
X106553000Y-79268750D01*
X106394250Y-79110000D01*
X105653691Y-79110000D01*
X105420302Y-79206673D01*
X105241673Y-79385301D01*
X105185881Y-79519994D01*
X105010643Y-79344449D01*
X104446670Y-79110267D01*
X103836009Y-79109735D01*
X103271629Y-79342932D01*
X102839449Y-79774357D01*
X102605267Y-80338330D01*
X102604735Y-80948991D01*
X102837932Y-81513371D01*
X103269357Y-81945551D01*
X103720000Y-82132674D01*
X103720000Y-84022666D01*
X103644683Y-84036838D01*
X103428559Y-84175910D01*
X103283569Y-84388110D01*
X103232560Y-84640000D01*
X103232560Y-85540000D01*
X103276838Y-85775317D01*
X103415910Y-85991441D01*
X103628110Y-86136431D01*
X103880000Y-86187440D01*
X105080000Y-86187440D01*
X105315317Y-86143162D01*
X105531441Y-86004090D01*
X105579134Y-85934289D01*
X105615910Y-85991441D01*
X105828110Y-86136431D01*
X106080000Y-86187440D01*
X107280000Y-86187440D01*
X107515317Y-86143162D01*
X107731441Y-86004090D01*
X107836726Y-85850000D01*
X115445000Y-85850000D01*
X115735839Y-85792148D01*
X115982401Y-85627401D01*
X116617401Y-84992401D01*
X116782148Y-84745839D01*
X116840000Y-84455000D01*
X116840000Y-82282954D01*
X117130054Y-82089147D01*
X117350000Y-81759974D01*
X117569946Y-82089147D01*
X118051715Y-82411054D01*
X118620000Y-82524093D01*
X119188285Y-82411054D01*
X119670054Y-82089147D01*
X119890000Y-81759974D01*
X120109946Y-82089147D01*
X120400000Y-82282954D01*
X120400000Y-84332821D01*
X120457852Y-84623661D01*
X120622599Y-84870222D01*
X122652599Y-86900221D01*
X122899161Y-87064968D01*
X123043186Y-87093617D01*
X94742000Y-86869004D01*
X94742000Y-75535000D01*
X117700198Y-75535000D01*
X115542599Y-77692599D01*
X115542599Y-77692599D01*
G37*
X115542599Y-77692599D02*
X115377852Y-77939161D01*
X115320000Y-78230000D01*
X115320000Y-79737046D01*
X115029946Y-79930853D01*
X114810000Y-80260026D01*
X114590054Y-79930853D01*
X114108285Y-79608946D01*
X113540000Y-79495907D01*
X112971715Y-79608946D01*
X112489946Y-79930853D01*
X112460597Y-79974777D01*
X112388327Y-79800302D01*
X112209699Y-79621673D01*
X111976310Y-79525000D01*
X111285750Y-79525000D01*
X111127000Y-79683750D01*
X111127000Y-80883000D01*
X111147000Y-80883000D01*
X111147000Y-81137000D01*
X111127000Y-81137000D01*
X111127000Y-82336250D01*
X111285750Y-82495000D01*
X111976310Y-82495000D01*
X112209699Y-82398327D01*
X112388327Y-82219698D01*
X112460597Y-82045223D01*
X112489946Y-82089147D01*
X112971715Y-82411054D01*
X113540000Y-82524093D01*
X114108285Y-82411054D01*
X114590054Y-82089147D01*
X114810000Y-81759974D01*
X115029946Y-82089147D01*
X115320000Y-82282954D01*
X115320000Y-84140198D01*
X115130198Y-84330000D01*
X107835105Y-84330000D01*
X107744090Y-84188559D01*
X107531890Y-84043569D01*
X107280000Y-83992560D01*
X106080000Y-83992560D01*
X105844683Y-84036838D01*
X105628559Y-84175910D01*
X105580866Y-84245711D01*
X105544090Y-84188559D01*
X105331890Y-84043569D01*
X105240000Y-84024961D01*
X105240000Y-81900660D01*
X105241673Y-81904699D01*
X105420302Y-82083327D01*
X105653691Y-82180000D01*
X106394250Y-82180000D01*
X106553000Y-82021250D01*
X106553000Y-80772000D01*
X106807000Y-80772000D01*
X106807000Y-82021250D01*
X106965750Y-82180000D01*
X107706309Y-82180000D01*
X107939698Y-82083327D01*
X108118327Y-81904699D01*
X108215000Y-81671310D01*
X108215000Y-81295750D01*
X109515000Y-81295750D01*
X109515000Y-81986309D01*
X109611673Y-82219698D01*
X109790301Y-82398327D01*
X110023690Y-82495000D01*
X110714250Y-82495000D01*
X110873000Y-82336250D01*
X110873000Y-81137000D01*
X109673750Y-81137000D01*
X109515000Y-81295750D01*
X108215000Y-81295750D01*
X108215000Y-80930750D01*
X108056250Y-80772000D01*
X106807000Y-80772000D01*
X106553000Y-80772000D01*
X106533000Y-80772000D01*
X106533000Y-80518000D01*
X106553000Y-80518000D01*
X106553000Y-79268750D01*
X106807000Y-79268750D01*
X106807000Y-80518000D01*
X108056250Y-80518000D01*
X108215000Y-80359250D01*
X108215000Y-80033691D01*
X109515000Y-80033691D01*
X109515000Y-80724250D01*
X109673750Y-80883000D01*
X110873000Y-80883000D01*
X110873000Y-79683750D01*
X110714250Y-79525000D01*
X110023690Y-79525000D01*
X109790301Y-79621673D01*
X109611673Y-79800302D01*
X109515000Y-80033691D01*
X108215000Y-80033691D01*
X108215000Y-79618690D01*
X108118327Y-79385301D01*
X107939698Y-79206673D01*
X107706309Y-79110000D01*
X106965750Y-79110000D01*
X106807000Y-79268750D01*
X106553000Y-79268750D01*
X106394250Y-79110000D01*
X105653691Y-79110000D01*
X105420302Y-79206673D01*
X105241673Y-79385301D01*
X105185881Y-79519994D01*
X105010643Y-79344449D01*
X104446670Y-79110267D01*
X103836009Y-79109735D01*
X103271629Y-79342932D01*
X102839449Y-79774357D01*
X102605267Y-80338330D01*
X102604735Y-80948991D01*
X102837932Y-81513371D01*
X103269357Y-81945551D01*
X103720000Y-82132674D01*
X103720000Y-84022666D01*
X103644683Y-84036838D01*
X103428559Y-84175910D01*
X103283569Y-84388110D01*
X103232560Y-84640000D01*
X103232560Y-85540000D01*
X103276838Y-85775317D01*
X103415910Y-85991441D01*
X103628110Y-86136431D01*
X103880000Y-86187440D01*
X105080000Y-86187440D01*
X105315317Y-86143162D01*
X105531441Y-86004090D01*
X105579134Y-85934289D01*
X105615910Y-85991441D01*
X105828110Y-86136431D01*
X106080000Y-86187440D01*
X107280000Y-86187440D01*
X107515317Y-86143162D01*
X107731441Y-86004090D01*
X107836726Y-85850000D01*
X115445000Y-85850000D01*
X115735839Y-85792148D01*
X115982401Y-85627401D01*
X116617401Y-84992401D01*
X116782148Y-84745839D01*
X116840000Y-84455000D01*
X116840000Y-82282954D01*
X117130054Y-82089147D01*
X117350000Y-81759974D01*
X117569946Y-82089147D01*
X118051715Y-82411054D01*
X118620000Y-82524093D01*
X119188285Y-82411054D01*
X119670054Y-82089147D01*
X119890000Y-81759974D01*
X120109946Y-82089147D01*
X120400000Y-82282954D01*
X120400000Y-84332821D01*
X120457852Y-84623661D01*
X120622599Y-84870222D01*
X122652599Y-86900221D01*
X122899161Y-87064968D01*
X123043186Y-87093617D01*
X94742000Y-86869004D01*
X94742000Y-75535000D01*
X117700198Y-75535000D01*
X115542599Y-77692599D01*
M02*
