M48
;DRILL file {KiCad 4.0.6} date 07/25/17 01:14:28
;FORMAT={-:-/ absolute / metric / decimal}
FMAT,2
METRIC,TZ
T1C0.400
T2C0.800
T3C0.900
T4C1.000
T5C3.200
%
G90
G05
M71
T1
X125.095Y-79.375
X127.635Y-103.505
X128.27Y-105.41
X136.075Y-85.54
X137.16Y-107.315
X143.421Y-103.594
X143.51Y-104.775
T2
X146.56Y-79.74
X149.06Y-79.74
X154.22Y-79.74
X156.72Y-79.74
T3
X87.63Y-89.535
X87.63Y-92.075
X87.63Y-94.615
X87.63Y-97.155
X87.63Y-99.695
X87.63Y-102.235
X87.63Y-104.775
X87.63Y-107.315
X87.63Y-109.855
X87.63Y-112.395
X87.63Y-114.935
X87.63Y-117.475
X87.63Y-120.015
X87.63Y-122.555
X87.63Y-125.095
X87.63Y-127.635
X87.63Y-130.175
X87.63Y-132.715
X87.63Y-135.255
X87.63Y-137.795
X87.63Y-140.335
X87.63Y-142.875
X87.63Y-145.415
X87.63Y-147.955
X87.63Y-150.495
X87.63Y-153.035
X87.63Y-155.575
X87.63Y-158.115
X87.63Y-160.655
X87.63Y-163.195
X90.17Y-89.535
X90.17Y-92.075
X90.17Y-94.615
X90.17Y-97.155
X90.17Y-99.695
X90.17Y-102.235
X90.17Y-104.775
X90.17Y-107.315
X90.17Y-109.855
X90.17Y-112.395
X90.17Y-114.935
X90.17Y-117.475
X90.17Y-120.015
X90.17Y-122.555
X90.17Y-125.095
X90.17Y-127.635
X90.17Y-130.175
X90.17Y-132.715
X90.17Y-135.255
X90.17Y-137.795
X90.17Y-140.335
X90.17Y-142.875
X90.17Y-145.415
X90.17Y-147.955
X90.17Y-150.495
X90.17Y-153.035
X90.17Y-155.575
X90.17Y-158.115
X90.17Y-160.655
X90.17Y-163.195
X92.71Y-89.535
X92.71Y-92.075
X92.71Y-94.615
X92.71Y-97.155
X92.71Y-99.695
X92.71Y-102.235
X92.71Y-104.775
X92.71Y-107.315
X92.71Y-109.855
X92.71Y-112.395
X92.71Y-114.935
X92.71Y-117.475
X92.71Y-120.015
X92.71Y-122.555
X92.71Y-125.095
X92.71Y-127.635
X92.71Y-130.175
X92.71Y-132.715
X92.71Y-135.255
X92.71Y-137.795
X92.71Y-140.335
X92.71Y-142.875
X92.71Y-145.415
X92.71Y-147.955
X92.71Y-150.495
X92.71Y-153.035
X92.71Y-155.575
X92.71Y-158.115
X92.71Y-160.655
X92.71Y-163.195
X95.25Y-89.535
X95.25Y-92.075
X95.25Y-94.615
X95.25Y-97.155
X95.25Y-99.695
X95.25Y-102.235
X95.25Y-104.775
X95.25Y-107.315
X95.25Y-109.855
X95.25Y-112.395
X95.25Y-114.935
X95.25Y-117.475
X95.25Y-120.015
X95.25Y-122.555
X95.25Y-125.095
X95.25Y-127.635
X95.25Y-130.175
X95.25Y-132.715
X95.25Y-135.255
X95.25Y-137.795
X95.25Y-140.335
X95.25Y-142.875
X95.25Y-145.415
X95.25Y-147.955
X95.25Y-150.495
X95.25Y-153.035
X95.25Y-155.575
X95.25Y-158.115
X95.25Y-160.655
X95.25Y-163.195
X95.25Y-165.735
X95.25Y-168.275
X95.25Y-170.815
X95.25Y-173.355
X97.79Y-89.535
X97.79Y-92.075
X97.79Y-94.615
X97.79Y-97.155
X97.79Y-99.695
X97.79Y-102.235
X97.79Y-104.775
X97.79Y-107.315
X97.79Y-109.855
X97.79Y-112.395
X97.79Y-114.935
X97.79Y-117.475
X97.79Y-120.015
X97.79Y-122.555
X97.79Y-125.095
X97.79Y-127.635
X97.79Y-130.175
X97.79Y-132.715
X97.79Y-135.255
X97.79Y-137.795
X97.79Y-140.335
X97.79Y-142.875
X97.79Y-145.415
X97.79Y-147.955
X97.79Y-150.495
X97.79Y-153.035
X97.79Y-155.575
X97.79Y-158.115
X97.79Y-160.655
X97.79Y-163.195
X97.79Y-165.735
X97.79Y-168.275
X97.79Y-170.815
X97.79Y-173.355
X100.33Y-89.535
X100.33Y-92.075
X100.33Y-94.615
X100.33Y-97.155
X100.33Y-99.695
X100.33Y-102.235
X100.33Y-104.775
X100.33Y-107.315
X100.33Y-109.855
X100.33Y-112.395
X100.33Y-114.935
X100.33Y-117.475
X100.33Y-120.015
X100.33Y-122.555
X100.33Y-125.095
X100.33Y-127.635
X100.33Y-130.175
X100.33Y-132.715
X100.33Y-135.255
X100.33Y-137.795
X100.33Y-140.335
X100.33Y-142.875
X100.33Y-145.415
X100.33Y-147.955
X100.33Y-150.495
X100.33Y-153.035
X100.33Y-155.575
X100.33Y-158.115
X100.33Y-160.655
X100.33Y-163.195
X100.33Y-165.735
X100.33Y-168.275
X100.33Y-170.815
X100.33Y-173.355
X102.87Y-89.535
X102.87Y-92.075
X102.87Y-94.615
X102.87Y-97.155
X102.87Y-99.695
X102.87Y-102.235
X102.87Y-104.775
X102.87Y-107.315
X102.87Y-109.855
X102.87Y-112.395
X102.87Y-114.935
X102.87Y-117.475
X102.87Y-120.015
X102.87Y-122.555
X102.87Y-125.095
X102.87Y-127.635
X102.87Y-130.175
X102.87Y-132.715
X102.87Y-135.255
X102.87Y-137.795
X102.87Y-140.335
X102.87Y-142.875
X102.87Y-145.415
X102.87Y-147.955
X102.87Y-150.495
X102.87Y-153.035
X102.87Y-155.575
X102.87Y-158.115
X102.87Y-160.655
X102.87Y-163.195
X102.87Y-165.735
X102.87Y-168.275
X102.87Y-170.815
X102.87Y-173.355
X104.14Y-80.645
X105.41Y-89.535
X105.41Y-92.075
X105.41Y-94.615
X105.41Y-97.155
X105.41Y-99.695
X105.41Y-102.235
X105.41Y-104.775
X105.41Y-107.315
X105.41Y-109.855
X105.41Y-112.395
X105.41Y-114.935
X105.41Y-117.475
X105.41Y-120.015
X105.41Y-122.555
X105.41Y-125.095
X105.41Y-127.635
X105.41Y-130.175
X105.41Y-132.715
X105.41Y-135.255
X105.41Y-137.795
X105.41Y-140.335
X105.41Y-142.875
X105.41Y-145.415
X105.41Y-147.955
X105.41Y-150.495
X105.41Y-153.035
X105.41Y-155.575
X105.41Y-158.115
X105.41Y-160.655
X105.41Y-163.195
X105.41Y-165.735
X105.41Y-168.275
X105.41Y-170.815
X105.41Y-173.355
X106.68Y-80.645
X107.95Y-89.535
X107.95Y-92.075
X107.95Y-94.615
X107.95Y-97.155
X107.95Y-99.695
X107.95Y-102.235
X107.95Y-104.775
X107.95Y-107.315
X107.95Y-109.855
X107.95Y-112.395
X107.95Y-114.935
X107.95Y-117.475
X107.95Y-120.015
X107.95Y-122.555
X107.95Y-125.095
X107.95Y-127.635
X107.95Y-130.175
X107.95Y-132.715
X107.95Y-135.255
X107.95Y-137.795
X107.95Y-140.335
X107.95Y-142.875
X107.95Y-145.415
X107.95Y-147.955
X107.95Y-150.495
X107.95Y-153.035
X107.95Y-155.575
X107.95Y-158.115
X107.95Y-160.655
X107.95Y-163.195
X107.95Y-165.735
X107.95Y-168.275
X107.95Y-170.815
X107.95Y-173.355
X110.49Y-89.535
X110.49Y-92.075
X110.49Y-94.615
X110.49Y-97.155
X110.49Y-99.695
X110.49Y-102.235
X110.49Y-104.775
X110.49Y-107.315
X110.49Y-109.855
X110.49Y-112.395
X110.49Y-114.935
X110.49Y-117.475
X110.49Y-120.015
X110.49Y-122.555
X110.49Y-125.095
X110.49Y-127.635
X110.49Y-130.175
X110.49Y-132.715
X110.49Y-135.255
X110.49Y-137.795
X110.49Y-140.335
X110.49Y-142.875
X110.49Y-145.415
X110.49Y-147.955
X110.49Y-150.495
X110.49Y-153.035
X110.49Y-155.575
X110.49Y-158.115
X110.49Y-160.655
X110.49Y-163.195
X110.49Y-165.735
X110.49Y-168.275
X110.49Y-170.815
X110.49Y-173.355
X113.03Y-89.535
X113.03Y-92.075
X113.03Y-94.615
X113.03Y-97.155
X113.03Y-99.695
X113.03Y-102.235
X113.03Y-104.775
X113.03Y-107.315
X113.03Y-109.855
X113.03Y-112.395
X113.03Y-114.935
X113.03Y-117.475
X113.03Y-120.015
X113.03Y-122.555
X113.03Y-125.095
X113.03Y-127.635
X113.03Y-130.175
X113.03Y-132.715
X113.03Y-135.255
X113.03Y-137.795
X113.03Y-140.335
X113.03Y-142.875
X113.03Y-145.415
X113.03Y-147.955
X113.03Y-150.495
X113.03Y-153.035
X113.03Y-155.575
X113.03Y-158.115
X113.03Y-160.655
X113.03Y-163.195
X113.03Y-165.735
X113.03Y-168.275
X113.03Y-170.815
X113.03Y-173.355
X115.57Y-89.535
X115.57Y-92.075
X115.57Y-94.615
X115.57Y-97.155
X115.57Y-99.695
X115.57Y-102.235
X115.57Y-104.775
X115.57Y-107.315
X115.57Y-109.855
X115.57Y-112.395
X115.57Y-114.935
X115.57Y-117.475
X115.57Y-120.015
X115.57Y-122.555
X115.57Y-125.095
X115.57Y-127.635
X115.57Y-130.175
X115.57Y-132.715
X115.57Y-135.255
X115.57Y-137.795
X115.57Y-140.335
X115.57Y-142.875
X115.57Y-145.415
X115.57Y-147.955
X115.57Y-150.495
X115.57Y-153.035
X115.57Y-155.575
X115.57Y-158.115
X115.57Y-160.655
X115.57Y-163.195
X115.57Y-165.735
X115.57Y-168.275
X115.57Y-170.815
X115.57Y-173.355
X118.11Y-89.535
X118.11Y-92.075
X118.11Y-94.615
X118.11Y-97.155
X118.11Y-99.695
X118.11Y-102.235
X118.11Y-104.775
X118.11Y-107.315
X118.11Y-109.855
X118.11Y-112.395
X118.11Y-114.935
X118.11Y-117.475
X118.11Y-120.015
X118.11Y-122.555
X118.11Y-125.095
X118.11Y-127.635
X118.11Y-130.175
X118.11Y-132.715
X118.11Y-135.255
X118.11Y-137.795
X118.11Y-140.335
X118.11Y-142.875
X118.11Y-145.415
X118.11Y-147.955
X118.11Y-150.495
X118.11Y-153.035
X118.11Y-155.575
X118.11Y-158.115
X118.11Y-160.655
X118.11Y-163.195
X118.11Y-165.735
X118.11Y-168.275
X118.11Y-170.815
X118.11Y-173.355
X120.65Y-89.535
X120.65Y-92.075
X120.65Y-94.615
X120.65Y-97.155
X120.65Y-99.695
X120.65Y-102.235
X120.65Y-104.775
X120.65Y-107.315
X120.65Y-109.855
X120.65Y-112.395
X120.65Y-114.935
X120.65Y-117.475
X120.65Y-120.015
X120.65Y-122.555
X120.65Y-125.095
X120.65Y-127.635
X120.65Y-130.175
X120.65Y-132.715
X120.65Y-135.255
X120.65Y-137.795
X120.65Y-140.335
X120.65Y-142.875
X120.65Y-145.415
X120.65Y-147.955
X120.65Y-150.495
X120.65Y-153.035
X120.65Y-155.575
X120.65Y-158.115
X120.65Y-160.655
X120.65Y-163.195
X120.65Y-165.735
X120.65Y-168.275
X120.65Y-170.815
X120.65Y-173.355
X123.19Y-125.095
X123.19Y-127.635
X123.19Y-130.175
X123.19Y-132.715
X123.19Y-135.255
X123.19Y-137.795
X123.19Y-140.335
X123.19Y-142.875
X123.19Y-145.415
X123.19Y-147.955
X123.19Y-150.495
X123.19Y-153.035
X123.19Y-155.575
X123.19Y-158.115
X123.19Y-160.655
X123.19Y-163.195
X123.19Y-165.735
X123.19Y-168.275
X123.19Y-170.815
X123.19Y-173.355
X124.63Y-89.7
X124.63Y-92.24
X124.63Y-94.78
X124.63Y-97.32
X124.63Y-99.86
X124.63Y-102.4
X124.63Y-107.48
X124.63Y-110.02
X124.63Y-112.56
X124.63Y-115.1
X124.63Y-117.64
X124.63Y-120.18
X125.73Y-125.095
X125.73Y-127.635
X125.73Y-130.175
X125.73Y-132.715
X125.73Y-135.255
X125.73Y-137.795
X125.73Y-140.335
X125.73Y-142.875
X125.73Y-145.415
X125.73Y-147.955
X125.73Y-150.495
X125.73Y-153.035
X125.73Y-155.575
X125.73Y-158.115
X125.73Y-160.655
X125.73Y-163.195
X125.73Y-165.735
X125.73Y-168.275
X125.73Y-170.815
X125.73Y-173.355
X128.27Y-125.095
X128.27Y-127.635
X128.27Y-130.175
X128.27Y-132.715
X128.27Y-135.255
X128.27Y-137.795
X128.27Y-140.335
X128.27Y-142.875
X128.27Y-145.415
X128.27Y-147.955
X128.27Y-150.495
X128.27Y-153.035
X128.27Y-155.575
X128.27Y-158.115
X128.27Y-160.655
X128.27Y-163.195
X128.27Y-165.735
X128.27Y-168.275
X128.27Y-170.815
X128.27Y-173.355
X130.81Y-125.095
X130.81Y-127.635
X130.81Y-130.175
X130.81Y-132.715
X130.81Y-135.255
X130.81Y-137.795
X130.81Y-140.335
X130.81Y-142.875
X130.81Y-145.415
X130.81Y-147.955
X130.81Y-150.495
X130.81Y-153.035
X130.81Y-155.575
X130.81Y-158.115
X130.81Y-160.655
X130.81Y-163.195
X130.81Y-165.735
X130.81Y-168.275
X130.81Y-170.815
X130.81Y-173.355
X133.35Y-125.095
X133.35Y-127.635
X133.35Y-130.175
X133.35Y-132.715
X133.35Y-135.255
X133.35Y-137.795
X133.35Y-140.335
X133.35Y-142.875
X133.35Y-145.415
X133.35Y-147.955
X133.35Y-150.495
X133.35Y-153.035
X133.35Y-155.575
X133.35Y-158.115
X133.35Y-160.655
X133.35Y-163.195
X133.35Y-165.735
X133.35Y-168.275
X133.35Y-170.815
X133.35Y-173.355
X135.89Y-125.095
X135.89Y-127.635
X135.89Y-130.175
X135.89Y-132.715
X135.89Y-135.255
X135.89Y-137.795
X135.89Y-140.335
X135.89Y-142.875
X135.89Y-145.415
X135.89Y-147.955
X135.89Y-150.495
X135.89Y-153.035
X135.89Y-155.575
X135.89Y-158.115
X135.89Y-160.655
X135.89Y-163.195
X135.89Y-165.735
X135.89Y-168.275
X135.89Y-170.815
X135.89Y-173.355
X138.43Y-125.095
X138.43Y-127.635
X138.43Y-130.175
X138.43Y-132.715
X138.43Y-135.255
X138.43Y-137.795
X138.43Y-140.335
X138.43Y-142.875
X138.43Y-145.415
X138.43Y-147.955
X138.43Y-150.495
X138.43Y-153.035
X138.43Y-155.575
X138.43Y-158.115
X138.43Y-160.655
X138.43Y-163.195
X138.43Y-165.735
X138.43Y-168.275
X138.43Y-170.815
X138.43Y-173.355
X140.97Y-125.095
X140.97Y-127.635
X140.97Y-130.175
X140.97Y-132.715
X140.97Y-135.255
X140.97Y-137.795
X140.97Y-140.335
X140.97Y-142.875
X140.97Y-145.415
X140.97Y-147.955
X140.97Y-150.495
X140.97Y-153.035
X140.97Y-155.575
X140.97Y-158.115
X140.97Y-160.655
X140.97Y-163.195
X140.97Y-165.735
X140.97Y-168.275
X140.97Y-170.815
X140.97Y-173.355
X143.51Y-125.095
X143.51Y-127.635
X143.51Y-130.175
X143.51Y-132.715
X143.51Y-135.255
X143.51Y-137.795
X143.51Y-140.335
X143.51Y-142.875
X143.51Y-145.415
X143.51Y-147.955
X143.51Y-150.495
X143.51Y-153.035
X143.51Y-155.575
X143.51Y-158.115
X143.51Y-160.655
X143.51Y-163.195
X143.51Y-165.735
X143.51Y-168.275
X143.51Y-170.815
X143.51Y-173.355
X144.78Y-107.395
X144.78Y-109.935
X144.78Y-112.475
X144.78Y-115.015
X144.78Y-117.555
X144.78Y-120.095
X144.95Y-89.7
X144.95Y-92.24
X144.95Y-94.78
X144.95Y-97.32
X144.95Y-99.86
X144.95Y-102.4
X146.05Y-125.095
X146.05Y-127.635
X146.05Y-130.175
X146.05Y-132.715
X146.05Y-135.255
X146.05Y-137.795
X146.05Y-140.335
X146.05Y-142.875
X146.05Y-145.415
X146.05Y-147.955
X146.05Y-150.495
X146.05Y-153.035
X146.05Y-155.575
X146.05Y-158.115
X146.05Y-160.655
X146.05Y-163.195
X146.05Y-165.735
X146.05Y-168.275
X146.05Y-170.815
X146.05Y-173.355
X148.59Y-89.535
X148.59Y-92.075
X148.59Y-94.615
X148.59Y-97.155
X148.59Y-99.695
X148.59Y-102.235
X148.59Y-104.775
X148.59Y-107.315
X148.59Y-109.855
X148.59Y-112.395
X148.59Y-114.935
X148.59Y-117.475
X148.59Y-120.015
X148.59Y-122.555
X148.59Y-125.095
X148.59Y-127.635
X148.59Y-130.175
X148.59Y-132.715
X148.59Y-135.255
X148.59Y-137.795
X148.59Y-140.335
X148.59Y-142.875
X148.59Y-145.415
X148.59Y-147.955
X148.59Y-150.495
X148.59Y-153.035
X148.59Y-155.575
X148.59Y-158.115
X148.59Y-160.655
X148.59Y-163.195
X148.59Y-165.735
X148.59Y-168.275
X148.59Y-170.815
X148.59Y-173.355
X151.13Y-89.535
X151.13Y-92.075
X151.13Y-94.615
X151.13Y-97.155
X151.13Y-99.695
X151.13Y-102.235
X151.13Y-104.775
X151.13Y-107.315
X151.13Y-109.855
X151.13Y-112.395
X151.13Y-114.935
X151.13Y-117.475
X151.13Y-120.015
X151.13Y-122.555
X151.13Y-125.095
X151.13Y-127.635
X151.13Y-130.175
X151.13Y-132.715
X151.13Y-135.255
X151.13Y-137.795
X151.13Y-140.335
X151.13Y-142.875
X151.13Y-145.415
X151.13Y-147.955
X151.13Y-150.495
X151.13Y-153.035
X151.13Y-155.575
X151.13Y-158.115
X151.13Y-160.655
X151.13Y-163.195
X151.13Y-165.735
X151.13Y-168.275
X151.13Y-170.815
X151.13Y-173.355
X153.67Y-89.535
X153.67Y-92.075
X153.67Y-94.615
X153.67Y-97.155
X153.67Y-99.695
X153.67Y-102.235
X153.67Y-104.775
X153.67Y-107.315
X153.67Y-109.855
X153.67Y-112.395
X153.67Y-114.935
X153.67Y-117.475
X153.67Y-120.015
X153.67Y-122.555
X153.67Y-125.095
X153.67Y-127.635
X153.67Y-130.175
X153.67Y-132.715
X153.67Y-135.255
X153.67Y-137.795
X153.67Y-140.335
X153.67Y-142.875
X153.67Y-145.415
X153.67Y-147.955
X153.67Y-150.495
X153.67Y-153.035
X153.67Y-155.575
X153.67Y-158.115
X153.67Y-160.655
X153.67Y-163.195
X153.67Y-165.735
X153.67Y-168.275
X153.67Y-170.815
X153.67Y-173.355
X156.21Y-89.535
X156.21Y-92.075
X156.21Y-94.615
X156.21Y-97.155
X156.21Y-99.695
X156.21Y-102.235
X156.21Y-104.775
X156.21Y-107.315
X156.21Y-109.855
X156.21Y-112.395
X156.21Y-114.935
X156.21Y-117.475
X156.21Y-120.015
X156.21Y-122.555
X156.21Y-125.095
X156.21Y-127.635
X156.21Y-130.175
X156.21Y-132.715
X156.21Y-135.255
X156.21Y-137.795
X156.21Y-140.335
X156.21Y-142.875
X156.21Y-145.415
X156.21Y-147.955
X156.21Y-150.495
X156.21Y-153.035
X156.21Y-155.575
X156.21Y-158.115
X156.21Y-160.655
X156.21Y-163.195
X156.21Y-165.735
X156.21Y-168.275
X156.21Y-170.815
X156.21Y-173.355
X158.75Y-89.535
X158.75Y-92.075
X158.75Y-94.615
X158.75Y-97.155
X158.75Y-99.695
X158.75Y-102.235
X158.75Y-104.775
X158.75Y-107.315
X158.75Y-109.855
X158.75Y-112.395
X158.75Y-114.935
X158.75Y-117.475
X158.75Y-120.015
X158.75Y-122.555
X158.75Y-125.095
X158.75Y-127.635
X158.75Y-130.175
X158.75Y-132.715
X158.75Y-135.255
X158.75Y-137.795
X158.75Y-140.335
X158.75Y-142.875
X158.75Y-145.415
X158.75Y-147.955
X158.75Y-150.495
X158.75Y-153.035
X158.75Y-155.575
X158.75Y-158.115
X158.75Y-160.655
X158.75Y-163.195
X158.75Y-165.735
X158.75Y-168.275
X158.75Y-170.815
X158.75Y-173.355
X161.29Y-89.535
X161.29Y-92.075
X161.29Y-94.615
X161.29Y-97.155
X161.29Y-99.695
X161.29Y-102.235
X161.29Y-104.775
X161.29Y-107.315
X161.29Y-109.855
X161.29Y-112.395
X161.29Y-114.935
X161.29Y-117.475
X161.29Y-120.015
X161.29Y-122.555
X161.29Y-125.095
X161.29Y-127.635
X161.29Y-130.175
X161.29Y-132.715
X161.29Y-135.255
X161.29Y-137.795
X161.29Y-140.335
X161.29Y-142.875
X161.29Y-145.415
X161.29Y-147.955
X161.29Y-150.495
X161.29Y-153.035
X161.29Y-155.575
X161.29Y-158.115
X161.29Y-160.655
X161.29Y-163.195
X161.29Y-165.735
X161.29Y-168.275
X161.29Y-170.815
X161.29Y-173.355
X163.83Y-89.535
X163.83Y-92.075
X163.83Y-94.615
X163.83Y-97.155
X163.83Y-99.695
X163.83Y-102.235
X163.83Y-104.775
X163.83Y-107.315
X163.83Y-109.855
X163.83Y-112.395
X163.83Y-114.935
X163.83Y-117.475
X163.83Y-120.015
X163.83Y-122.555
X163.83Y-125.095
X163.83Y-127.635
X163.83Y-130.175
X163.83Y-132.715
X163.83Y-135.255
X163.83Y-137.795
X163.83Y-140.335
X163.83Y-142.875
X163.83Y-145.415
X163.83Y-147.955
X163.83Y-150.495
X163.83Y-153.035
X163.83Y-155.575
X163.83Y-158.115
X163.83Y-160.655
X163.83Y-163.195
X163.83Y-165.735
X163.83Y-168.275
X163.83Y-170.815
X163.83Y-173.355
X166.37Y-89.535
X166.37Y-92.075
X166.37Y-94.615
X166.37Y-97.155
X166.37Y-99.695
X166.37Y-102.235
X166.37Y-104.775
X166.37Y-107.315
X166.37Y-109.855
X166.37Y-112.395
X166.37Y-114.935
X166.37Y-117.475
X166.37Y-120.015
X166.37Y-122.555
X166.37Y-125.095
X166.37Y-127.635
X166.37Y-130.175
X166.37Y-132.715
X166.37Y-135.255
X166.37Y-137.795
X166.37Y-140.335
X166.37Y-142.875
X166.37Y-145.415
X166.37Y-147.955
X166.37Y-150.495
X166.37Y-153.035
X166.37Y-155.575
X166.37Y-158.115
X166.37Y-160.655
X166.37Y-163.195
X166.37Y-165.735
X166.37Y-168.275
X166.37Y-170.815
X166.37Y-173.355
X168.91Y-89.535
X168.91Y-92.075
X168.91Y-94.615
X168.91Y-97.155
X168.91Y-99.695
X168.91Y-102.235
X168.91Y-104.775
X168.91Y-107.315
X168.91Y-109.855
X168.91Y-112.395
X168.91Y-114.935
X168.91Y-117.475
X168.91Y-120.015
X168.91Y-122.555
X168.91Y-125.095
X168.91Y-127.635
X168.91Y-130.175
X168.91Y-132.715
X168.91Y-135.255
X168.91Y-137.795
X168.91Y-140.335
X168.91Y-142.875
X168.91Y-145.415
X168.91Y-147.955
X168.91Y-150.495
X168.91Y-153.035
X168.91Y-155.575
X168.91Y-158.115
X168.91Y-160.655
X168.91Y-163.195
X168.91Y-165.735
X168.91Y-168.275
X168.91Y-170.815
X168.91Y-173.355
X171.45Y-89.535
X171.45Y-92.075
X171.45Y-94.615
X171.45Y-97.155
X171.45Y-99.695
X171.45Y-102.235
X171.45Y-104.775
X171.45Y-107.315
X171.45Y-109.855
X171.45Y-112.395
X171.45Y-114.935
X171.45Y-117.475
X171.45Y-120.015
X171.45Y-122.555
X171.45Y-125.095
X171.45Y-127.635
X171.45Y-130.175
X171.45Y-132.715
X171.45Y-135.255
X171.45Y-137.795
X171.45Y-140.335
X171.45Y-142.875
X171.45Y-145.415
X171.45Y-147.955
X171.45Y-150.495
X171.45Y-153.035
X171.45Y-155.575
X171.45Y-158.115
X171.45Y-160.655
X171.45Y-163.195
X171.45Y-165.735
X171.45Y-168.275
X171.45Y-170.815
X171.45Y-173.355
X173.99Y-89.535
X173.99Y-92.075
X173.99Y-94.615
X173.99Y-97.155
X173.99Y-99.695
X173.99Y-102.235
X173.99Y-104.775
X173.99Y-107.315
X173.99Y-109.855
X173.99Y-112.395
X173.99Y-114.935
X173.99Y-117.475
X173.99Y-120.015
X173.99Y-122.555
X173.99Y-125.095
X173.99Y-127.635
X173.99Y-130.175
X173.99Y-132.715
X173.99Y-135.255
X173.99Y-137.795
X173.99Y-140.335
X173.99Y-142.875
X173.99Y-145.415
X173.99Y-147.955
X173.99Y-150.495
X173.99Y-153.035
X173.99Y-155.575
X173.99Y-158.115
X173.99Y-160.655
X173.99Y-163.195
X173.99Y-165.735
X173.99Y-168.275
X173.99Y-170.815
X173.99Y-173.355
X176.53Y-89.535
X176.53Y-92.075
X176.53Y-94.615
X176.53Y-97.155
X176.53Y-99.695
X176.53Y-102.235
X176.53Y-104.775
X176.53Y-107.315
X176.53Y-109.855
X176.53Y-112.395
X176.53Y-114.935
X176.53Y-117.475
X176.53Y-120.015
X176.53Y-122.555
X176.53Y-125.095
X176.53Y-127.635
X176.53Y-130.175
X176.53Y-132.715
X176.53Y-135.255
X176.53Y-137.795
X176.53Y-140.335
X176.53Y-142.875
X176.53Y-145.415
X176.53Y-147.955
X176.53Y-150.495
X176.53Y-153.035
X176.53Y-155.575
X176.53Y-158.115
X176.53Y-160.655
X176.53Y-163.195
X179.07Y-89.535
X179.07Y-92.075
X179.07Y-94.615
X179.07Y-97.155
X179.07Y-99.695
X179.07Y-102.235
X179.07Y-104.775
X179.07Y-107.315
X179.07Y-109.855
X179.07Y-112.395
X179.07Y-114.935
X179.07Y-117.475
X179.07Y-120.015
X179.07Y-122.555
X179.07Y-125.095
X179.07Y-127.635
X179.07Y-130.175
X179.07Y-132.715
X179.07Y-135.255
X179.07Y-137.795
X179.07Y-140.335
X179.07Y-142.875
X179.07Y-145.415
X179.07Y-147.955
X179.07Y-150.495
X179.07Y-153.035
X179.07Y-155.575
X179.07Y-158.115
X179.07Y-160.655
X179.07Y-163.195
X181.61Y-89.535
X181.61Y-92.075
X181.61Y-94.615
X181.61Y-97.155
X181.61Y-99.695
X181.61Y-102.235
X181.61Y-104.775
X181.61Y-107.315
X181.61Y-109.855
X181.61Y-112.395
X181.61Y-114.935
X181.61Y-117.475
X181.61Y-120.015
X181.61Y-122.555
X181.61Y-125.095
X181.61Y-127.635
X181.61Y-130.175
X181.61Y-132.715
X181.61Y-135.255
X181.61Y-137.795
X181.61Y-140.335
X181.61Y-142.875
X181.61Y-145.415
X181.61Y-147.955
X181.61Y-150.495
X181.61Y-153.035
X181.61Y-155.575
X181.61Y-158.115
X181.61Y-160.655
X181.61Y-163.195
T4
X111.Y-81.01
X113.54Y-81.01
X116.08Y-81.01
X118.62Y-81.01
X121.16Y-81.01
X123.7Y-81.01
T5
X89.53Y-79.85
X89.53Y-169.85
X179.53Y-79.85
X179.53Y-169.85
T4
X162.18Y-80.82G85X162.18Y-82.82
G05
X167.88Y-78.82G85X165.88Y-78.82
G05
X167.88Y-84.82G85X165.88Y-84.82
G05
T0
M30
