G04 #@! TF.FileFunction,Legend,Bot*
%FSLAX46Y46*%
G04 Gerber Fmt 4.6, Leading zero omitted, Abs format (unit mm)*
G04 Created by KiCad (PCBNEW 4.0.6) date 07/25/17 01:14:20*
%MOMM*%
%LPD*%
G01*
G04 APERTURE LIST*
%ADD10C,0.100000*%
%ADD11C,0.300000*%
%ADD12C,0.250000*%
G04 APERTURE END LIST*
D10*
D11*
X142755714Y-90213571D02*
X142755714Y-88713571D01*
X142755714Y-90142143D02*
X142898571Y-90213571D01*
X143184285Y-90213571D01*
X143327143Y-90142143D01*
X143398571Y-90070714D01*
X143470000Y-89927857D01*
X143470000Y-89499286D01*
X143398571Y-89356429D01*
X143327143Y-89285000D01*
X143184285Y-89213571D01*
X142898571Y-89213571D01*
X142755714Y-89285000D01*
X142041428Y-89213571D02*
X142041428Y-90713571D01*
X142041428Y-89285000D02*
X141898571Y-89213571D01*
X141612857Y-89213571D01*
X141470000Y-89285000D01*
X141398571Y-89356429D01*
X141327142Y-89499286D01*
X141327142Y-89927857D01*
X141398571Y-90070714D01*
X141470000Y-90142143D01*
X141612857Y-90213571D01*
X141898571Y-90213571D01*
X142041428Y-90142143D01*
X140755714Y-88856429D02*
X140684285Y-88785000D01*
X140541428Y-88713571D01*
X140184285Y-88713571D01*
X140041428Y-88785000D01*
X139969999Y-88856429D01*
X139898571Y-88999286D01*
X139898571Y-89142143D01*
X139969999Y-89356429D01*
X140827142Y-90213571D01*
X139898571Y-90213571D01*
X139041428Y-89356429D02*
X139184286Y-89285000D01*
X139255714Y-89213571D01*
X139327143Y-89070714D01*
X139327143Y-88999286D01*
X139255714Y-88856429D01*
X139184286Y-88785000D01*
X139041428Y-88713571D01*
X138755714Y-88713571D01*
X138612857Y-88785000D01*
X138541428Y-88856429D01*
X138470000Y-88999286D01*
X138470000Y-89070714D01*
X138541428Y-89213571D01*
X138612857Y-89285000D01*
X138755714Y-89356429D01*
X139041428Y-89356429D01*
X139184286Y-89427857D01*
X139255714Y-89499286D01*
X139327143Y-89642143D01*
X139327143Y-89927857D01*
X139255714Y-90070714D01*
X139184286Y-90142143D01*
X139041428Y-90213571D01*
X138755714Y-90213571D01*
X138612857Y-90142143D01*
X138541428Y-90070714D01*
X138470000Y-89927857D01*
X138470000Y-89642143D01*
X138541428Y-89499286D01*
X138612857Y-89427857D01*
X138755714Y-89356429D01*
X142755714Y-92753571D02*
X142755714Y-91253571D01*
X142755714Y-92682143D02*
X142898571Y-92753571D01*
X143184285Y-92753571D01*
X143327143Y-92682143D01*
X143398571Y-92610714D01*
X143470000Y-92467857D01*
X143470000Y-92039286D01*
X143398571Y-91896429D01*
X143327143Y-91825000D01*
X143184285Y-91753571D01*
X142898571Y-91753571D01*
X142755714Y-91825000D01*
X142041428Y-91753571D02*
X142041428Y-93253571D01*
X142041428Y-91825000D02*
X141898571Y-91753571D01*
X141612857Y-91753571D01*
X141470000Y-91825000D01*
X141398571Y-91896429D01*
X141327142Y-92039286D01*
X141327142Y-92467857D01*
X141398571Y-92610714D01*
X141470000Y-92682143D01*
X141612857Y-92753571D01*
X141898571Y-92753571D01*
X142041428Y-92682143D01*
X140755714Y-91396429D02*
X140684285Y-91325000D01*
X140541428Y-91253571D01*
X140184285Y-91253571D01*
X140041428Y-91325000D01*
X139969999Y-91396429D01*
X139898571Y-91539286D01*
X139898571Y-91682143D01*
X139969999Y-91896429D01*
X140827142Y-92753571D01*
X139898571Y-92753571D01*
X139398571Y-91253571D02*
X138398571Y-91253571D01*
X139041428Y-92753571D01*
X142755714Y-95293571D02*
X142755714Y-93793571D01*
X142755714Y-95222143D02*
X142898571Y-95293571D01*
X143184285Y-95293571D01*
X143327143Y-95222143D01*
X143398571Y-95150714D01*
X143470000Y-95007857D01*
X143470000Y-94579286D01*
X143398571Y-94436429D01*
X143327143Y-94365000D01*
X143184285Y-94293571D01*
X142898571Y-94293571D01*
X142755714Y-94365000D01*
X142041428Y-94293571D02*
X142041428Y-95793571D01*
X142041428Y-94365000D02*
X141898571Y-94293571D01*
X141612857Y-94293571D01*
X141470000Y-94365000D01*
X141398571Y-94436429D01*
X141327142Y-94579286D01*
X141327142Y-95007857D01*
X141398571Y-95150714D01*
X141470000Y-95222143D01*
X141612857Y-95293571D01*
X141898571Y-95293571D01*
X142041428Y-95222143D01*
X140755714Y-93936429D02*
X140684285Y-93865000D01*
X140541428Y-93793571D01*
X140184285Y-93793571D01*
X140041428Y-93865000D01*
X139969999Y-93936429D01*
X139898571Y-94079286D01*
X139898571Y-94222143D01*
X139969999Y-94436429D01*
X140827142Y-95293571D01*
X139898571Y-95293571D01*
X138612857Y-93793571D02*
X138898571Y-93793571D01*
X139041428Y-93865000D01*
X139112857Y-93936429D01*
X139255714Y-94150714D01*
X139327143Y-94436429D01*
X139327143Y-95007857D01*
X139255714Y-95150714D01*
X139184286Y-95222143D01*
X139041428Y-95293571D01*
X138755714Y-95293571D01*
X138612857Y-95222143D01*
X138541428Y-95150714D01*
X138470000Y-95007857D01*
X138470000Y-94650714D01*
X138541428Y-94507857D01*
X138612857Y-94436429D01*
X138755714Y-94365000D01*
X139041428Y-94365000D01*
X139184286Y-94436429D01*
X139255714Y-94507857D01*
X139327143Y-94650714D01*
X142755714Y-97833571D02*
X142755714Y-96333571D01*
X142755714Y-97762143D02*
X142898571Y-97833571D01*
X143184285Y-97833571D01*
X143327143Y-97762143D01*
X143398571Y-97690714D01*
X143470000Y-97547857D01*
X143470000Y-97119286D01*
X143398571Y-96976429D01*
X143327143Y-96905000D01*
X143184285Y-96833571D01*
X142898571Y-96833571D01*
X142755714Y-96905000D01*
X142041428Y-96833571D02*
X142041428Y-98333571D01*
X142041428Y-96905000D02*
X141898571Y-96833571D01*
X141612857Y-96833571D01*
X141470000Y-96905000D01*
X141398571Y-96976429D01*
X141327142Y-97119286D01*
X141327142Y-97547857D01*
X141398571Y-97690714D01*
X141470000Y-97762143D01*
X141612857Y-97833571D01*
X141898571Y-97833571D01*
X142041428Y-97762143D01*
X140755714Y-96476429D02*
X140684285Y-96405000D01*
X140541428Y-96333571D01*
X140184285Y-96333571D01*
X140041428Y-96405000D01*
X139969999Y-96476429D01*
X139898571Y-96619286D01*
X139898571Y-96762143D01*
X139969999Y-96976429D01*
X140827142Y-97833571D01*
X139898571Y-97833571D01*
X138541428Y-96333571D02*
X139255714Y-96333571D01*
X139327143Y-97047857D01*
X139255714Y-96976429D01*
X139112857Y-96905000D01*
X138755714Y-96905000D01*
X138612857Y-96976429D01*
X138541428Y-97047857D01*
X138470000Y-97190714D01*
X138470000Y-97547857D01*
X138541428Y-97690714D01*
X138612857Y-97762143D01*
X138755714Y-97833571D01*
X139112857Y-97833571D01*
X139255714Y-97762143D01*
X139327143Y-97690714D01*
D12*
X143724048Y-99802143D02*
X143676429Y-99730714D01*
X143581191Y-99659286D01*
X143390715Y-99802143D01*
X143295476Y-99730714D01*
X143247857Y-99659286D01*
X142438333Y-100373571D02*
X142438333Y-98873571D01*
X142438333Y-100302143D02*
X142533571Y-100373571D01*
X142724048Y-100373571D01*
X142819286Y-100302143D01*
X142866905Y-100230714D01*
X142914524Y-100087857D01*
X142914524Y-99659286D01*
X142866905Y-99516429D01*
X142819286Y-99445000D01*
X142724048Y-99373571D01*
X142533571Y-99373571D01*
X142438333Y-99445000D01*
X141962143Y-99373571D02*
X141962143Y-100873571D01*
X141962143Y-99445000D02*
X141866905Y-99373571D01*
X141676428Y-99373571D01*
X141581190Y-99445000D01*
X141533571Y-99516429D01*
X141485952Y-99659286D01*
X141485952Y-100087857D01*
X141533571Y-100230714D01*
X141581190Y-100302143D01*
X141676428Y-100373571D01*
X141866905Y-100373571D01*
X141962143Y-100302143D01*
X141105000Y-99016429D02*
X141057381Y-98945000D01*
X140962143Y-98873571D01*
X140724047Y-98873571D01*
X140628809Y-98945000D01*
X140581190Y-99016429D01*
X140533571Y-99159286D01*
X140533571Y-99302143D01*
X140581190Y-99516429D01*
X141152619Y-100373571D01*
X140533571Y-100373571D01*
X139676428Y-99373571D02*
X139676428Y-100373571D01*
X139914524Y-98802143D02*
X140152619Y-99873571D01*
X139533571Y-99873571D01*
X142795476Y-102278571D02*
X142795476Y-100778571D01*
X142795476Y-102207143D02*
X142890714Y-102278571D01*
X143081191Y-102278571D01*
X143176429Y-102207143D01*
X143224048Y-102135714D01*
X143271667Y-101992857D01*
X143271667Y-101564286D01*
X143224048Y-101421429D01*
X143176429Y-101350000D01*
X143081191Y-101278571D01*
X142890714Y-101278571D01*
X142795476Y-101350000D01*
X142319286Y-101278571D02*
X142319286Y-102778571D01*
X142319286Y-101350000D02*
X142224048Y-101278571D01*
X142033571Y-101278571D01*
X141938333Y-101350000D01*
X141890714Y-101421429D01*
X141843095Y-101564286D01*
X141843095Y-101992857D01*
X141890714Y-102135714D01*
X141938333Y-102207143D01*
X142033571Y-102278571D01*
X142224048Y-102278571D01*
X142319286Y-102207143D01*
X141462143Y-100921429D02*
X141414524Y-100850000D01*
X141319286Y-100778571D01*
X141081190Y-100778571D01*
X140985952Y-100850000D01*
X140938333Y-100921429D01*
X140890714Y-101064286D01*
X140890714Y-101207143D01*
X140938333Y-101421429D01*
X141509762Y-102278571D01*
X140890714Y-102278571D01*
X140557381Y-100778571D02*
X139938333Y-100778571D01*
X140271667Y-101350000D01*
X140128809Y-101350000D01*
X140033571Y-101421429D01*
X139985952Y-101492857D01*
X139938333Y-101635714D01*
X139938333Y-101992857D01*
X139985952Y-102135714D01*
X140033571Y-102207143D01*
X140128809Y-102278571D01*
X140414524Y-102278571D01*
X140509762Y-102207143D01*
X140557381Y-102135714D01*
X142628809Y-106493571D02*
X141962142Y-107993571D01*
X141962142Y-106493571D02*
X142628809Y-107993571D01*
X141581190Y-107993571D02*
X141581190Y-106993571D01*
X141581190Y-106493571D02*
X141628809Y-106565000D01*
X141581190Y-106636429D01*
X141533571Y-106565000D01*
X141581190Y-106493571D01*
X141581190Y-106636429D01*
X141105000Y-106993571D02*
X141105000Y-107993571D01*
X141105000Y-107136429D02*
X141057381Y-107065000D01*
X140962143Y-106993571D01*
X140819285Y-106993571D01*
X140724047Y-107065000D01*
X140676428Y-107207857D01*
X140676428Y-107993571D01*
X143128810Y-109033571D02*
X142462143Y-110533571D01*
X142462143Y-109033571D02*
X143128810Y-110533571D01*
X141938334Y-110533571D02*
X142033572Y-110462143D01*
X142081191Y-110390714D01*
X142128810Y-110247857D01*
X142128810Y-109819286D01*
X142081191Y-109676429D01*
X142033572Y-109605000D01*
X141938334Y-109533571D01*
X141795476Y-109533571D01*
X141700238Y-109605000D01*
X141652619Y-109676429D01*
X141605000Y-109819286D01*
X141605000Y-110247857D01*
X141652619Y-110390714D01*
X141700238Y-110462143D01*
X141795476Y-110533571D01*
X141938334Y-110533571D01*
X140747857Y-109533571D02*
X140747857Y-110533571D01*
X141176429Y-109533571D02*
X141176429Y-110319286D01*
X141128810Y-110462143D01*
X141033572Y-110533571D01*
X140890714Y-110533571D01*
X140795476Y-110462143D01*
X140747857Y-110390714D01*
X140414524Y-109533571D02*
X140033572Y-109533571D01*
X140271667Y-109033571D02*
X140271667Y-110319286D01*
X140224048Y-110462143D01*
X140128810Y-110533571D01*
X140033572Y-110533571D01*
D11*
X143513571Y-112502143D02*
X143442142Y-112430714D01*
X143299285Y-112359286D01*
X143013571Y-112502143D01*
X142870714Y-112430714D01*
X142799285Y-112359286D01*
X141584999Y-113073571D02*
X141584999Y-111573571D01*
X141584999Y-113002143D02*
X141727856Y-113073571D01*
X142013570Y-113073571D01*
X142156428Y-113002143D01*
X142227856Y-112930714D01*
X142299285Y-112787857D01*
X142299285Y-112359286D01*
X142227856Y-112216429D01*
X142156428Y-112145000D01*
X142013570Y-112073571D01*
X141727856Y-112073571D01*
X141584999Y-112145000D01*
X140870713Y-112073571D02*
X140870713Y-113573571D01*
X140870713Y-112145000D02*
X140727856Y-112073571D01*
X140442142Y-112073571D01*
X140299285Y-112145000D01*
X140227856Y-112216429D01*
X140156427Y-112359286D01*
X140156427Y-112787857D01*
X140227856Y-112930714D01*
X140299285Y-113002143D01*
X140442142Y-113073571D01*
X140727856Y-113073571D01*
X140870713Y-113002143D01*
X138727856Y-113073571D02*
X139584999Y-113073571D01*
X139156427Y-113073571D02*
X139156427Y-111573571D01*
X139299284Y-111787857D01*
X139442142Y-111930714D01*
X139584999Y-112002143D01*
X137870713Y-112216429D02*
X138013571Y-112145000D01*
X138084999Y-112073571D01*
X138156428Y-111930714D01*
X138156428Y-111859286D01*
X138084999Y-111716429D01*
X138013571Y-111645000D01*
X137870713Y-111573571D01*
X137584999Y-111573571D01*
X137442142Y-111645000D01*
X137370713Y-111716429D01*
X137299285Y-111859286D01*
X137299285Y-111930714D01*
X137370713Y-112073571D01*
X137442142Y-112145000D01*
X137584999Y-112216429D01*
X137870713Y-112216429D01*
X138013571Y-112287857D01*
X138084999Y-112359286D01*
X138156428Y-112502143D01*
X138156428Y-112787857D01*
X138084999Y-112930714D01*
X138013571Y-113002143D01*
X137870713Y-113073571D01*
X137584999Y-113073571D01*
X137442142Y-113002143D01*
X137370713Y-112930714D01*
X137299285Y-112787857D01*
X137299285Y-112502143D01*
X137370713Y-112359286D01*
X137442142Y-112287857D01*
X137584999Y-112216429D01*
X142755714Y-115613571D02*
X142755714Y-114113571D01*
X142755714Y-115542143D02*
X142898571Y-115613571D01*
X143184285Y-115613571D01*
X143327143Y-115542143D01*
X143398571Y-115470714D01*
X143470000Y-115327857D01*
X143470000Y-114899286D01*
X143398571Y-114756429D01*
X143327143Y-114685000D01*
X143184285Y-114613571D01*
X142898571Y-114613571D01*
X142755714Y-114685000D01*
X142041428Y-114613571D02*
X142041428Y-116113571D01*
X142041428Y-114685000D02*
X141898571Y-114613571D01*
X141612857Y-114613571D01*
X141470000Y-114685000D01*
X141398571Y-114756429D01*
X141327142Y-114899286D01*
X141327142Y-115327857D01*
X141398571Y-115470714D01*
X141470000Y-115542143D01*
X141612857Y-115613571D01*
X141898571Y-115613571D01*
X142041428Y-115542143D01*
X139898571Y-115613571D02*
X140755714Y-115613571D01*
X140327142Y-115613571D02*
X140327142Y-114113571D01*
X140469999Y-114327857D01*
X140612857Y-114470714D01*
X140755714Y-114542143D01*
X139398571Y-114113571D02*
X138398571Y-114113571D01*
X139041428Y-115613571D01*
X142755714Y-118153571D02*
X142755714Y-116653571D01*
X142755714Y-118082143D02*
X142898571Y-118153571D01*
X143184285Y-118153571D01*
X143327143Y-118082143D01*
X143398571Y-118010714D01*
X143470000Y-117867857D01*
X143470000Y-117439286D01*
X143398571Y-117296429D01*
X143327143Y-117225000D01*
X143184285Y-117153571D01*
X142898571Y-117153571D01*
X142755714Y-117225000D01*
X142041428Y-117153571D02*
X142041428Y-118653571D01*
X142041428Y-117225000D02*
X141898571Y-117153571D01*
X141612857Y-117153571D01*
X141470000Y-117225000D01*
X141398571Y-117296429D01*
X141327142Y-117439286D01*
X141327142Y-117867857D01*
X141398571Y-118010714D01*
X141470000Y-118082143D01*
X141612857Y-118153571D01*
X141898571Y-118153571D01*
X142041428Y-118082143D01*
X139898571Y-118153571D02*
X140755714Y-118153571D01*
X140327142Y-118153571D02*
X140327142Y-116653571D01*
X140469999Y-116867857D01*
X140612857Y-117010714D01*
X140755714Y-117082143D01*
X138612857Y-116653571D02*
X138898571Y-116653571D01*
X139041428Y-116725000D01*
X139112857Y-116796429D01*
X139255714Y-117010714D01*
X139327143Y-117296429D01*
X139327143Y-117867857D01*
X139255714Y-118010714D01*
X139184286Y-118082143D01*
X139041428Y-118153571D01*
X138755714Y-118153571D01*
X138612857Y-118082143D01*
X138541428Y-118010714D01*
X138470000Y-117867857D01*
X138470000Y-117510714D01*
X138541428Y-117367857D01*
X138612857Y-117296429D01*
X138755714Y-117225000D01*
X139041428Y-117225000D01*
X139184286Y-117296429D01*
X139255714Y-117367857D01*
X139327143Y-117510714D01*
X142755714Y-120693571D02*
X142755714Y-119193571D01*
X142755714Y-120622143D02*
X142898571Y-120693571D01*
X143184285Y-120693571D01*
X143327143Y-120622143D01*
X143398571Y-120550714D01*
X143470000Y-120407857D01*
X143470000Y-119979286D01*
X143398571Y-119836429D01*
X143327143Y-119765000D01*
X143184285Y-119693571D01*
X142898571Y-119693571D01*
X142755714Y-119765000D01*
X142041428Y-119693571D02*
X142041428Y-121193571D01*
X142041428Y-119765000D02*
X141898571Y-119693571D01*
X141612857Y-119693571D01*
X141470000Y-119765000D01*
X141398571Y-119836429D01*
X141327142Y-119979286D01*
X141327142Y-120407857D01*
X141398571Y-120550714D01*
X141470000Y-120622143D01*
X141612857Y-120693571D01*
X141898571Y-120693571D01*
X142041428Y-120622143D01*
X139898571Y-120693571D02*
X140755714Y-120693571D01*
X140327142Y-120693571D02*
X140327142Y-119193571D01*
X140469999Y-119407857D01*
X140612857Y-119550714D01*
X140755714Y-119622143D01*
X138541428Y-119193571D02*
X139255714Y-119193571D01*
X139327143Y-119907857D01*
X139255714Y-119836429D01*
X139112857Y-119765000D01*
X138755714Y-119765000D01*
X138612857Y-119836429D01*
X138541428Y-119907857D01*
X138470000Y-120050714D01*
X138470000Y-120407857D01*
X138541428Y-120550714D01*
X138612857Y-120622143D01*
X138755714Y-120693571D01*
X139112857Y-120693571D01*
X139255714Y-120622143D01*
X139327143Y-120550714D01*
X130690714Y-120693571D02*
X130690714Y-119193571D01*
X130690714Y-120622143D02*
X130833571Y-120693571D01*
X131119285Y-120693571D01*
X131262143Y-120622143D01*
X131333571Y-120550714D01*
X131405000Y-120407857D01*
X131405000Y-119979286D01*
X131333571Y-119836429D01*
X131262143Y-119765000D01*
X131119285Y-119693571D01*
X130833571Y-119693571D01*
X130690714Y-119765000D01*
X129976428Y-119693571D02*
X129976428Y-121193571D01*
X129976428Y-119765000D02*
X129833571Y-119693571D01*
X129547857Y-119693571D01*
X129405000Y-119765000D01*
X129333571Y-119836429D01*
X129262142Y-119979286D01*
X129262142Y-120407857D01*
X129333571Y-120550714D01*
X129405000Y-120622143D01*
X129547857Y-120693571D01*
X129833571Y-120693571D01*
X129976428Y-120622143D01*
X127833571Y-120693571D02*
X128690714Y-120693571D01*
X128262142Y-120693571D02*
X128262142Y-119193571D01*
X128404999Y-119407857D01*
X128547857Y-119550714D01*
X128690714Y-119622143D01*
X126547857Y-119693571D02*
X126547857Y-120693571D01*
X126905000Y-119122143D02*
X127262143Y-120193571D01*
X126333571Y-120193571D01*
X130690714Y-118153571D02*
X130690714Y-116653571D01*
X130690714Y-118082143D02*
X130833571Y-118153571D01*
X131119285Y-118153571D01*
X131262143Y-118082143D01*
X131333571Y-118010714D01*
X131405000Y-117867857D01*
X131405000Y-117439286D01*
X131333571Y-117296429D01*
X131262143Y-117225000D01*
X131119285Y-117153571D01*
X130833571Y-117153571D01*
X130690714Y-117225000D01*
X129976428Y-117153571D02*
X129976428Y-118653571D01*
X129976428Y-117225000D02*
X129833571Y-117153571D01*
X129547857Y-117153571D01*
X129405000Y-117225000D01*
X129333571Y-117296429D01*
X129262142Y-117439286D01*
X129262142Y-117867857D01*
X129333571Y-118010714D01*
X129405000Y-118082143D01*
X129547857Y-118153571D01*
X129833571Y-118153571D01*
X129976428Y-118082143D01*
X127833571Y-118153571D02*
X128690714Y-118153571D01*
X128262142Y-118153571D02*
X128262142Y-116653571D01*
X128404999Y-116867857D01*
X128547857Y-117010714D01*
X128690714Y-117082143D01*
X127333571Y-116653571D02*
X126405000Y-116653571D01*
X126905000Y-117225000D01*
X126690714Y-117225000D01*
X126547857Y-117296429D01*
X126476428Y-117367857D01*
X126405000Y-117510714D01*
X126405000Y-117867857D01*
X126476428Y-118010714D01*
X126547857Y-118082143D01*
X126690714Y-118153571D01*
X127119286Y-118153571D01*
X127262143Y-118082143D01*
X127333571Y-118010714D01*
X132718572Y-115542143D02*
X132504286Y-115613571D01*
X132147143Y-115613571D01*
X132004286Y-115542143D01*
X131932857Y-115470714D01*
X131861429Y-115327857D01*
X131861429Y-115185000D01*
X131932857Y-115042143D01*
X132004286Y-114970714D01*
X132147143Y-114899286D01*
X132432857Y-114827857D01*
X132575715Y-114756429D01*
X132647143Y-114685000D01*
X132718572Y-114542143D01*
X132718572Y-114399286D01*
X132647143Y-114256429D01*
X132575715Y-114185000D01*
X132432857Y-114113571D01*
X132075715Y-114113571D01*
X131861429Y-114185000D01*
X131361429Y-114113571D02*
X131004286Y-115613571D01*
X130718572Y-114542143D01*
X130432858Y-115613571D01*
X130075715Y-114113571D01*
X129504286Y-115613571D02*
X129504286Y-114113571D01*
X129147143Y-114113571D01*
X128932858Y-114185000D01*
X128790000Y-114327857D01*
X128718572Y-114470714D01*
X128647143Y-114756429D01*
X128647143Y-114970714D01*
X128718572Y-115256429D01*
X128790000Y-115399286D01*
X128932858Y-115542143D01*
X129147143Y-115613571D01*
X129504286Y-115613571D01*
X128004286Y-115613571D02*
X128004286Y-114113571D01*
X127004286Y-114113571D02*
X126718572Y-114113571D01*
X126575714Y-114185000D01*
X126432857Y-114327857D01*
X126361429Y-114613571D01*
X126361429Y-115113571D01*
X126432857Y-115399286D01*
X126575714Y-115542143D01*
X126718572Y-115613571D01*
X127004286Y-115613571D01*
X127147143Y-115542143D01*
X127290000Y-115399286D01*
X127361429Y-115113571D01*
X127361429Y-114613571D01*
X127290000Y-114327857D01*
X127147143Y-114185000D01*
X127004286Y-114113571D01*
X130690714Y-113073571D02*
X130690714Y-111573571D01*
X130690714Y-113002143D02*
X130833571Y-113073571D01*
X131119285Y-113073571D01*
X131262143Y-113002143D01*
X131333571Y-112930714D01*
X131405000Y-112787857D01*
X131405000Y-112359286D01*
X131333571Y-112216429D01*
X131262143Y-112145000D01*
X131119285Y-112073571D01*
X130833571Y-112073571D01*
X130690714Y-112145000D01*
X129976428Y-112073571D02*
X129976428Y-113573571D01*
X129976428Y-112145000D02*
X129833571Y-112073571D01*
X129547857Y-112073571D01*
X129405000Y-112145000D01*
X129333571Y-112216429D01*
X129262142Y-112359286D01*
X129262142Y-112787857D01*
X129333571Y-112930714D01*
X129405000Y-113002143D01*
X129547857Y-113073571D01*
X129833571Y-113073571D01*
X129976428Y-113002143D01*
X127833571Y-113073571D02*
X128690714Y-113073571D01*
X128262142Y-113073571D02*
X128262142Y-111573571D01*
X128404999Y-111787857D01*
X128547857Y-111930714D01*
X128690714Y-112002143D01*
X126405000Y-113073571D02*
X127262143Y-113073571D01*
X126833571Y-113073571D02*
X126833571Y-111573571D01*
X126976428Y-111787857D01*
X127119286Y-111930714D01*
X127262143Y-112002143D01*
X130690714Y-110533571D02*
X130690714Y-109033571D01*
X130690714Y-110462143D02*
X130833571Y-110533571D01*
X131119285Y-110533571D01*
X131262143Y-110462143D01*
X131333571Y-110390714D01*
X131405000Y-110247857D01*
X131405000Y-109819286D01*
X131333571Y-109676429D01*
X131262143Y-109605000D01*
X131119285Y-109533571D01*
X130833571Y-109533571D01*
X130690714Y-109605000D01*
X129976428Y-109533571D02*
X129976428Y-111033571D01*
X129976428Y-109605000D02*
X129833571Y-109533571D01*
X129547857Y-109533571D01*
X129405000Y-109605000D01*
X129333571Y-109676429D01*
X129262142Y-109819286D01*
X129262142Y-110247857D01*
X129333571Y-110390714D01*
X129405000Y-110462143D01*
X129547857Y-110533571D01*
X129833571Y-110533571D01*
X129976428Y-110462143D01*
X127833571Y-110533571D02*
X128690714Y-110533571D01*
X128262142Y-110533571D02*
X128262142Y-109033571D01*
X128404999Y-109247857D01*
X128547857Y-109390714D01*
X128690714Y-109462143D01*
X126905000Y-109033571D02*
X126762143Y-109033571D01*
X126619286Y-109105000D01*
X126547857Y-109176429D01*
X126476428Y-109319286D01*
X126405000Y-109605000D01*
X126405000Y-109962143D01*
X126476428Y-110247857D01*
X126547857Y-110390714D01*
X126619286Y-110462143D01*
X126762143Y-110533571D01*
X126905000Y-110533571D01*
X127047857Y-110462143D01*
X127119286Y-110390714D01*
X127190714Y-110247857D01*
X127262143Y-109962143D01*
X127262143Y-109605000D01*
X127190714Y-109319286D01*
X127119286Y-109176429D01*
X127047857Y-109105000D01*
X126905000Y-109033571D01*
X129341428Y-107993571D02*
X129341428Y-106493571D01*
X129341428Y-107922143D02*
X129484285Y-107993571D01*
X129769999Y-107993571D01*
X129912857Y-107922143D01*
X129984285Y-107850714D01*
X130055714Y-107707857D01*
X130055714Y-107279286D01*
X129984285Y-107136429D01*
X129912857Y-107065000D01*
X129769999Y-106993571D01*
X129484285Y-106993571D01*
X129341428Y-107065000D01*
X128627142Y-106993571D02*
X128627142Y-108493571D01*
X128627142Y-107065000D02*
X128484285Y-106993571D01*
X128198571Y-106993571D01*
X128055714Y-107065000D01*
X127984285Y-107136429D01*
X127912856Y-107279286D01*
X127912856Y-107707857D01*
X127984285Y-107850714D01*
X128055714Y-107922143D01*
X128198571Y-107993571D01*
X128484285Y-107993571D01*
X128627142Y-107922143D01*
X127198571Y-107993571D02*
X126912856Y-107993571D01*
X126769999Y-107922143D01*
X126698571Y-107850714D01*
X126555713Y-107636429D01*
X126484285Y-107350714D01*
X126484285Y-106779286D01*
X126555713Y-106636429D01*
X126627142Y-106565000D01*
X126769999Y-106493571D01*
X127055713Y-106493571D01*
X127198571Y-106565000D01*
X127269999Y-106636429D01*
X127341428Y-106779286D01*
X127341428Y-107136429D01*
X127269999Y-107279286D01*
X127198571Y-107350714D01*
X127055713Y-107422143D01*
X126769999Y-107422143D01*
X126627142Y-107350714D01*
X126555713Y-107279286D01*
X126484285Y-107136429D01*
X129341428Y-102278571D02*
X129341428Y-100778571D01*
X129341428Y-102207143D02*
X129484285Y-102278571D01*
X129769999Y-102278571D01*
X129912857Y-102207143D01*
X129984285Y-102135714D01*
X130055714Y-101992857D01*
X130055714Y-101564286D01*
X129984285Y-101421429D01*
X129912857Y-101350000D01*
X129769999Y-101278571D01*
X129484285Y-101278571D01*
X129341428Y-101350000D01*
X128627142Y-101278571D02*
X128627142Y-102778571D01*
X128627142Y-101350000D02*
X128484285Y-101278571D01*
X128198571Y-101278571D01*
X128055714Y-101350000D01*
X127984285Y-101421429D01*
X127912856Y-101564286D01*
X127912856Y-101992857D01*
X127984285Y-102135714D01*
X128055714Y-102207143D01*
X128198571Y-102278571D01*
X128484285Y-102278571D01*
X128627142Y-102207143D01*
X126627142Y-100778571D02*
X126912856Y-100778571D01*
X127055713Y-100850000D01*
X127127142Y-100921429D01*
X127269999Y-101135714D01*
X127341428Y-101421429D01*
X127341428Y-101992857D01*
X127269999Y-102135714D01*
X127198571Y-102207143D01*
X127055713Y-102278571D01*
X126769999Y-102278571D01*
X126627142Y-102207143D01*
X126555713Y-102135714D01*
X126484285Y-101992857D01*
X126484285Y-101635714D01*
X126555713Y-101492857D01*
X126627142Y-101421429D01*
X126769999Y-101350000D01*
X127055713Y-101350000D01*
X127198571Y-101421429D01*
X127269999Y-101492857D01*
X127341428Y-101635714D01*
X129341428Y-100373571D02*
X129341428Y-98873571D01*
X129341428Y-100302143D02*
X129484285Y-100373571D01*
X129769999Y-100373571D01*
X129912857Y-100302143D01*
X129984285Y-100230714D01*
X130055714Y-100087857D01*
X130055714Y-99659286D01*
X129984285Y-99516429D01*
X129912857Y-99445000D01*
X129769999Y-99373571D01*
X129484285Y-99373571D01*
X129341428Y-99445000D01*
X128627142Y-99373571D02*
X128627142Y-100873571D01*
X128627142Y-99445000D02*
X128484285Y-99373571D01*
X128198571Y-99373571D01*
X128055714Y-99445000D01*
X127984285Y-99516429D01*
X127912856Y-99659286D01*
X127912856Y-100087857D01*
X127984285Y-100230714D01*
X128055714Y-100302143D01*
X128198571Y-100373571D01*
X128484285Y-100373571D01*
X128627142Y-100302143D01*
X126555713Y-98873571D02*
X127269999Y-98873571D01*
X127341428Y-99587857D01*
X127269999Y-99516429D01*
X127127142Y-99445000D01*
X126769999Y-99445000D01*
X126627142Y-99516429D01*
X126555713Y-99587857D01*
X126484285Y-99730714D01*
X126484285Y-100087857D01*
X126555713Y-100230714D01*
X126627142Y-100302143D01*
X126769999Y-100373571D01*
X127127142Y-100373571D01*
X127269999Y-100302143D01*
X127341428Y-100230714D01*
X129341428Y-97833571D02*
X129341428Y-96333571D01*
X129341428Y-97762143D02*
X129484285Y-97833571D01*
X129769999Y-97833571D01*
X129912857Y-97762143D01*
X129984285Y-97690714D01*
X130055714Y-97547857D01*
X130055714Y-97119286D01*
X129984285Y-96976429D01*
X129912857Y-96905000D01*
X129769999Y-96833571D01*
X129484285Y-96833571D01*
X129341428Y-96905000D01*
X128627142Y-96833571D02*
X128627142Y-98333571D01*
X128627142Y-96905000D02*
X128484285Y-96833571D01*
X128198571Y-96833571D01*
X128055714Y-96905000D01*
X127984285Y-96976429D01*
X127912856Y-97119286D01*
X127912856Y-97547857D01*
X127984285Y-97690714D01*
X128055714Y-97762143D01*
X128198571Y-97833571D01*
X128484285Y-97833571D01*
X128627142Y-97762143D01*
X126627142Y-96833571D02*
X126627142Y-97833571D01*
X126984285Y-96262143D02*
X127341428Y-97333571D01*
X126412856Y-97333571D01*
X132932857Y-95222143D02*
X132718571Y-95293571D01*
X132361428Y-95293571D01*
X132218571Y-95222143D01*
X132147142Y-95150714D01*
X132075714Y-95007857D01*
X132075714Y-94865000D01*
X132147142Y-94722143D01*
X132218571Y-94650714D01*
X132361428Y-94579286D01*
X132647142Y-94507857D01*
X132790000Y-94436429D01*
X132861428Y-94365000D01*
X132932857Y-94222143D01*
X132932857Y-94079286D01*
X132861428Y-93936429D01*
X132790000Y-93865000D01*
X132647142Y-93793571D01*
X132290000Y-93793571D01*
X132075714Y-93865000D01*
X131575714Y-93793571D02*
X131218571Y-95293571D01*
X130932857Y-94222143D01*
X130647143Y-95293571D01*
X130290000Y-93793571D01*
X128861428Y-95150714D02*
X128932857Y-95222143D01*
X129147143Y-95293571D01*
X129290000Y-95293571D01*
X129504285Y-95222143D01*
X129647143Y-95079286D01*
X129718571Y-94936429D01*
X129790000Y-94650714D01*
X129790000Y-94436429D01*
X129718571Y-94150714D01*
X129647143Y-94007857D01*
X129504285Y-93865000D01*
X129290000Y-93793571D01*
X129147143Y-93793571D01*
X128932857Y-93865000D01*
X128861428Y-93936429D01*
X127504285Y-95293571D02*
X128218571Y-95293571D01*
X128218571Y-93793571D01*
X127004285Y-95293571D02*
X127004285Y-93793571D01*
X126147142Y-95293571D02*
X126789999Y-94436429D01*
X126147142Y-93793571D02*
X127004285Y-94650714D01*
X130734286Y-92182143D02*
X130662857Y-92110714D01*
X130520000Y-92039286D01*
X130234286Y-92182143D01*
X130091429Y-92110714D01*
X130020000Y-92039286D01*
X128805714Y-92753571D02*
X128805714Y-91253571D01*
X128805714Y-92682143D02*
X128948571Y-92753571D01*
X129234285Y-92753571D01*
X129377143Y-92682143D01*
X129448571Y-92610714D01*
X129520000Y-92467857D01*
X129520000Y-92039286D01*
X129448571Y-91896429D01*
X129377143Y-91825000D01*
X129234285Y-91753571D01*
X128948571Y-91753571D01*
X128805714Y-91825000D01*
X128091428Y-91753571D02*
X128091428Y-93253571D01*
X128091428Y-91825000D02*
X127948571Y-91753571D01*
X127662857Y-91753571D01*
X127520000Y-91825000D01*
X127448571Y-91896429D01*
X127377142Y-92039286D01*
X127377142Y-92467857D01*
X127448571Y-92610714D01*
X127520000Y-92682143D01*
X127662857Y-92753571D01*
X127948571Y-92753571D01*
X128091428Y-92682143D01*
X126805714Y-91396429D02*
X126734285Y-91325000D01*
X126591428Y-91253571D01*
X126234285Y-91253571D01*
X126091428Y-91325000D01*
X126019999Y-91396429D01*
X125948571Y-91539286D01*
X125948571Y-91682143D01*
X126019999Y-91896429D01*
X126877142Y-92753571D01*
X125948571Y-92753571D01*
X130734286Y-89642143D02*
X130662857Y-89570714D01*
X130520000Y-89499286D01*
X130234286Y-89642143D01*
X130091429Y-89570714D01*
X130020000Y-89499286D01*
X128805714Y-90213571D02*
X128805714Y-88713571D01*
X128805714Y-90142143D02*
X128948571Y-90213571D01*
X129234285Y-90213571D01*
X129377143Y-90142143D01*
X129448571Y-90070714D01*
X129520000Y-89927857D01*
X129520000Y-89499286D01*
X129448571Y-89356429D01*
X129377143Y-89285000D01*
X129234285Y-89213571D01*
X128948571Y-89213571D01*
X128805714Y-89285000D01*
X128091428Y-89213571D02*
X128091428Y-90713571D01*
X128091428Y-89285000D02*
X127948571Y-89213571D01*
X127662857Y-89213571D01*
X127520000Y-89285000D01*
X127448571Y-89356429D01*
X127377142Y-89499286D01*
X127377142Y-89927857D01*
X127448571Y-90070714D01*
X127520000Y-90142143D01*
X127662857Y-90213571D01*
X127948571Y-90213571D01*
X128091428Y-90142143D01*
X125948571Y-90213571D02*
X126805714Y-90213571D01*
X126377142Y-90213571D02*
X126377142Y-88713571D01*
X126519999Y-88927857D01*
X126662857Y-89070714D01*
X126805714Y-89142143D01*
X125847141Y-78148571D02*
X126561427Y-78148571D01*
X126561427Y-76648571D01*
X125347141Y-78148571D02*
X125347141Y-76648571D01*
X124775713Y-76648571D01*
X124632855Y-76720000D01*
X124561427Y-76791429D01*
X124489998Y-76934286D01*
X124489998Y-77148571D01*
X124561427Y-77291429D01*
X124632855Y-77362857D01*
X124775713Y-77434286D01*
X125347141Y-77434286D01*
X122989998Y-78005714D02*
X123061427Y-78077143D01*
X123275713Y-78148571D01*
X123418570Y-78148571D01*
X123632855Y-78077143D01*
X123775713Y-77934286D01*
X123847141Y-77791429D01*
X123918570Y-77505714D01*
X123918570Y-77291429D01*
X123847141Y-77005714D01*
X123775713Y-76862857D01*
X123632855Y-76720000D01*
X123418570Y-76648571D01*
X123275713Y-76648571D01*
X123061427Y-76720000D01*
X122989998Y-76791429D01*
X121561427Y-78148571D02*
X122418570Y-78148571D01*
X121989998Y-78148571D02*
X121989998Y-76648571D01*
X122132855Y-76862857D01*
X122275713Y-77005714D01*
X122418570Y-77077143D01*
X120132856Y-78148571D02*
X120989999Y-78148571D01*
X120561427Y-78148571D02*
X120561427Y-76648571D01*
X120704284Y-76862857D01*
X120847142Y-77005714D01*
X120989999Y-77077143D01*
X118704285Y-78148571D02*
X119561428Y-78148571D01*
X119132856Y-78148571D02*
X119132856Y-76648571D01*
X119275713Y-76862857D01*
X119418571Y-77005714D01*
X119561428Y-77077143D01*
X117418571Y-77148571D02*
X117418571Y-78148571D01*
X117775714Y-76577143D02*
X118132857Y-77648571D01*
X117204285Y-77648571D01*
X115490000Y-76648571D02*
X115490000Y-77862857D01*
X115418572Y-78005714D01*
X115347143Y-78077143D01*
X115204286Y-78148571D01*
X114918572Y-78148571D01*
X114775714Y-78077143D01*
X114704286Y-78005714D01*
X114632857Y-77862857D01*
X114632857Y-76648571D01*
X113918571Y-77148571D02*
X113918571Y-78148571D01*
X113918571Y-77291429D02*
X113847143Y-77220000D01*
X113704285Y-77148571D01*
X113490000Y-77148571D01*
X113347143Y-77220000D01*
X113275714Y-77362857D01*
X113275714Y-78148571D01*
X112561428Y-78148571D02*
X112561428Y-77148571D01*
X112561428Y-76648571D02*
X112632857Y-76720000D01*
X112561428Y-76791429D01*
X112490000Y-76720000D01*
X112561428Y-76648571D01*
X112561428Y-76791429D01*
X111989999Y-77148571D02*
X111632856Y-78148571D01*
X111275714Y-77148571D01*
X110132857Y-78077143D02*
X110275714Y-78148571D01*
X110561428Y-78148571D01*
X110704285Y-78077143D01*
X110775714Y-77934286D01*
X110775714Y-77362857D01*
X110704285Y-77220000D01*
X110561428Y-77148571D01*
X110275714Y-77148571D01*
X110132857Y-77220000D01*
X110061428Y-77362857D01*
X110061428Y-77505714D01*
X110775714Y-77648571D01*
X109418571Y-78148571D02*
X109418571Y-77148571D01*
X109418571Y-77434286D02*
X109347143Y-77291429D01*
X109275714Y-77220000D01*
X109132857Y-77148571D01*
X108990000Y-77148571D01*
X108561429Y-78077143D02*
X108418572Y-78148571D01*
X108132857Y-78148571D01*
X107990000Y-78077143D01*
X107918572Y-77934286D01*
X107918572Y-77862857D01*
X107990000Y-77720000D01*
X108132857Y-77648571D01*
X108347143Y-77648571D01*
X108490000Y-77577143D01*
X108561429Y-77434286D01*
X108561429Y-77362857D01*
X108490000Y-77220000D01*
X108347143Y-77148571D01*
X108132857Y-77148571D01*
X107990000Y-77220000D01*
X106632857Y-78148571D02*
X106632857Y-77362857D01*
X106704286Y-77220000D01*
X106847143Y-77148571D01*
X107132857Y-77148571D01*
X107275714Y-77220000D01*
X106632857Y-78077143D02*
X106775714Y-78148571D01*
X107132857Y-78148571D01*
X107275714Y-78077143D01*
X107347143Y-77934286D01*
X107347143Y-77791429D01*
X107275714Y-77648571D01*
X107132857Y-77577143D01*
X106775714Y-77577143D01*
X106632857Y-77505714D01*
X105704285Y-78148571D02*
X105847143Y-78077143D01*
X105918571Y-77934286D01*
X105918571Y-76648571D01*
X103061429Y-77434286D02*
X103132857Y-77362857D01*
X103275714Y-77291429D01*
X103418572Y-77291429D01*
X103561429Y-77362857D01*
X103632857Y-77434286D01*
X103704286Y-77577143D01*
X103704286Y-77720000D01*
X103632857Y-77862857D01*
X103561429Y-77934286D01*
X103418572Y-78005714D01*
X103275714Y-78005714D01*
X103132857Y-77934286D01*
X103061429Y-77862857D01*
X103061429Y-77291429D02*
X103061429Y-77862857D01*
X102990000Y-77934286D01*
X102918572Y-77934286D01*
X102775714Y-77862857D01*
X102704286Y-77720000D01*
X102704286Y-77362857D01*
X102847143Y-77148571D01*
X103061429Y-77005714D01*
X103347143Y-76934286D01*
X103632857Y-77005714D01*
X103847143Y-77148571D01*
X103990000Y-77362857D01*
X104061429Y-77648571D01*
X103990000Y-77934286D01*
X103847143Y-78148571D01*
X103632857Y-78291429D01*
X103347143Y-78362857D01*
X103061429Y-78291429D01*
X102847143Y-78148571D01*
X101632858Y-76648571D02*
X101632858Y-77720000D01*
X101704286Y-77934286D01*
X101847143Y-78077143D01*
X102061429Y-78148571D01*
X102204286Y-78148571D01*
X100918572Y-78148571D02*
X100918572Y-76648571D01*
X100347144Y-76648571D01*
X100204286Y-76720000D01*
X100132858Y-76791429D01*
X100061429Y-76934286D01*
X100061429Y-77148571D01*
X100132858Y-77291429D01*
X100204286Y-77362857D01*
X100347144Y-77434286D01*
X100918572Y-77434286D01*
X99561429Y-76648571D02*
X98632858Y-76648571D01*
X99132858Y-77220000D01*
X98918572Y-77220000D01*
X98775715Y-77291429D01*
X98704286Y-77362857D01*
X98632858Y-77505714D01*
X98632858Y-77862857D01*
X98704286Y-78005714D01*
X98775715Y-78077143D01*
X98918572Y-78148571D01*
X99347144Y-78148571D01*
X99490001Y-78077143D01*
X99561429Y-78005714D01*
X97132858Y-78005714D02*
X97204287Y-78077143D01*
X97418573Y-78148571D01*
X97561430Y-78148571D01*
X97775715Y-78077143D01*
X97918573Y-77934286D01*
X97990001Y-77791429D01*
X98061430Y-77505714D01*
X98061430Y-77291429D01*
X97990001Y-77005714D01*
X97918573Y-76862857D01*
X97775715Y-76720000D01*
X97561430Y-76648571D01*
X97418573Y-76648571D01*
X97204287Y-76720000D01*
X97132858Y-76791429D01*
X96204287Y-77434286D02*
X96204287Y-78148571D01*
X96704287Y-76648571D02*
X96204287Y-77434286D01*
X95704287Y-76648571D01*
X94347144Y-78005714D02*
X94418573Y-78077143D01*
X94632859Y-78148571D01*
X94775716Y-78148571D01*
X94990001Y-78077143D01*
X95132859Y-77934286D01*
X95204287Y-77791429D01*
X95275716Y-77505714D01*
X95275716Y-77291429D01*
X95204287Y-77005714D01*
X95132859Y-76862857D01*
X94990001Y-76720000D01*
X94775716Y-76648571D01*
X94632859Y-76648571D01*
X94418573Y-76720000D01*
X94347144Y-76791429D01*
M02*
